<?xml version="1.0" encoding="utf-8"?>
<!-- Generator: Adobe Illustrator 21.1.0, SVG Export Plug-In . SVG Version: 6.00 Build 0)  -->
<svg version="1.1" id="Layer_1" xmlns="http://www.w3.org/2000/svg" xmlns:xlink="http://www.w3.org/1999/xlink" x="0px" y="0px"
	 viewBox="0 0 64 80" style="enable-background:new 0 0 64 80;" xml:space="preserve">
<g>
	<path d="M34,5.9c-2-0.1-3.8,0.7-5.3,2c-1.4,1.3-2.2,3.2-2.3,5c-0.1,2,0.7,3.8,2,5.3c1.3,1.4,3.2,2.2,5,2.3c0.1,0,0.2,0,0.2,0
		c1.9,0,3.6-0.7,4.9-2c1.4-1.3,2.2-3.2,2.3-5c0.2-2-0.5-3.8-1.9-5.3S35.9,5.9,34,5.9z M36.8,16.4c-0.9,0.9-2.1,1.2-3.3,1.2
		c-1.2,0-2.3-0.5-3.2-1.4c-0.9-0.9-1.3-2.1-1.2-3.3c0-1.2,0.5-2.3,1.4-3.2c0.9-0.8,2-1.2,3.1-1.2h0.1c1.2,0,2.3,0.5,3.2,1.4
		c0.9,0.9,1.3,2.1,1.2,3.3C38.2,14.5,37.7,15.6,36.8,16.4z"/>
	<path d="M55.2,49.2c-1-1.9-3.2-2.1-4-2.2c-0.7-0.1-7.3-0.9-10-1.3c-0.9-0.1-1.8-0.2-2.6-0.3c-0.8-0.1-1.4,0.4-1.5,1.2
		c-0.1,0.8,0.4,1.4,1.2,1.5c0.9,0.1,1.8,0.2,2.5,0.3c2.7,0.4,9.4,1.2,10.1,1.3c1.4,0.1,1.8,0.4,1.9,0.8c1,2,0.3,4.4-0.4,6.8
		c-0.1,0.3-0.2,0.7-0.3,1.1c-1.1,3.9-2.2,7.8-3.4,11.7c-0.2,0.8-0.9,1.2-1.6,1.2c-0.5,0-1-0.2-1.2-0.7c-0.3-0.3-0.4-0.9-0.3-1.3
		l2.4-14.6c0.1-0.4,0-0.9-0.3-1.2L47,53.1h-0.7c-1.3,0-10.8,0.2-12.6,0.1c-1.6-0.1-2.7-0.4-3-1.1c-0.5-1.3-0.9-2.7-1.2-4.2
		c-0.4-1.9-0.9-3.6-1.2-5.5c-1-4-1.9-8.3-1.6-12.5c0.1-2.4,0.4-3.8,2-4.5c1.5-0.7,3.3,0,4.4,0.8c0.8,0.5,1.3,1.3,1.8,2.2
		c0.1,0.2,0.2,0.5,0.3,0.8c0.2,0.7,0.4,1.3,0.5,2.1l0.3,3.5l0.5,1c0.3,0.5,0.8,1,1.2,1.3l9.3,5.4c0.7,0.3,1.5,0.1,1.9-0.5
		s0.1-1.5-0.5-1.9l-9.1-5.1c-0.1-0.1-0.3-0.3-0.4-0.4L38.6,34L38.2,31c-0.2-1-0.3-1.8-0.7-2.6c-0.1-0.3-0.2-0.7-0.4-1
		c-0.5-1.2-1.5-2.3-2.5-3.2c-2.2-1.6-4.9-2.1-7.1-1.1c-3.4,1.5-3.5,4.9-3.6,6.8c-0.2,4.6,0.7,9.1,1.6,13.2c0.3,1.8,0.8,3.6,1.2,5.6
		c0.3,1.4,0.8,3,1.3,4.4c1,2.5,4.3,2.7,5.3,2.8c1.5,0.1,8.2,0,11.3,0l-2.2,13c-0.2,1.2,0.1,2.5,1,3.5c0.8,1,2,1.5,3.3,1.6h0.1
		c2,0,3.7-1.3,4.3-3.2c1.1-3.9,2.3-7.9,3.4-11.7c0.1-0.3,0.2-0.7,0.3-1C55.8,55.4,56.7,52.1,55.2,49.2z"/>
	<path d="M7.1,44.1c-1.4,4.8-1,10,1.3,14.3s6.3,7.7,11.2,9.2c1.9,0.5,3.7,0.9,5.6,0.9c4.8,0,9.6-1.9,13.1-5.4c0.5-0.5,0.5-1.4,0-2
		s-1.4-0.5-2,0c-4.3,4.2-10.4,5.6-16,3.9c-4.2-1.3-7.4-4-9.5-7.9C8.8,53.4,8.4,49,9.6,45c1.5-5,5.5-9,10.5-10.6
		c0.8-0.2,1.1-1,0.9-1.8c-0.2-0.8-1-1.1-1.8-0.9C13.5,33.5,8.9,38.2,7.1,44.1z"/>
</g>
</svg>
