<?xml version="1.0" encoding="utf-8"?>
<!-- Generator: Adobe Illustrator 21.1.0, SVG Export Plug-In . SVG Version: 6.00 Build 0)  -->
<svg version="1.1" id="Layer_1" xmlns="http://www.w3.org/2000/svg" xmlns:xlink="http://www.w3.org/1999/xlink" x="0px" y="0px"
	 viewBox="0 0 100 125" style="enable-background:new 0 0 100 125;" xml:space="preserve">
<g>
	<path d="M86.6,40.3H13.4c-0.8,0-1.4,0.6-1.4,1.4v69.8c0,0.8,0.6,1.4,1.4,1.4h73.2c0.8,0,1.4-0.6,1.4-1.4V41.6
		C88,40.9,87.4,40.3,86.6,40.3z M85.2,110.1H14.8V43h70.5V110.1z"/>
	<path d="M34.9,64.2c4.3,0,7.7-3.5,7.7-7.7c0-4.3-3.5-7.7-7.7-7.7c-4.3,0-7.7,3.5-7.7,7.7C27.2,60.7,30.7,64.2,34.9,64.2z
		 M34.9,51.5c2.7,0,5,2.2,5,5c0,2.7-2.2,5-5,5c-2.7,0-5-2.2-5-5C29.9,53.7,32.2,51.5,34.9,51.5z"/>
	<path d="M65.1,64.2c4.3,0,7.7-3.5,7.7-7.7c0-4.3-3.5-7.7-7.7-7.7c-4.3,0-7.7,3.5-7.7,7.7C57.4,60.7,60.8,64.2,65.1,64.2z
		 M65.1,51.5c2.7,0,5,2.2,5,5c0,2.7-2.2,5-5,5c-2.7,0-5-2.2-5-5C60.1,53.7,62.3,51.5,65.1,51.5z"/>
	<path d="M57.4,85.9v17.4c0,0.8,0.6,1.4,1.4,1.4h12.7c0.8,0,1.4-0.6,1.4-1.4V85.9c2.3-0.6,4-2.7,4.1-5.2c0,0,0,0,0-0.1V67.2
		c0-0.8-0.6-1.4-1.4-1.4H54.6c-0.8,0-1.4,0.6-1.4,1.4v13.4c0,0,0,0,0,0C53.3,83.2,55,85.3,57.4,85.9z M56,80.6V68.6h18.1v12
		c0,0,0,0,0,0c0,1.5-1.2,2.7-2.7,2.7c-0.8,0-1.4,0.6-1.4,1.4c0,0,0,0,0,0v17.2h-9.9V84.7c0-0.8-0.6-1.4-1.4-1.4c0,0,0,0,0,0
		c0,0,0,0,0,0C57.2,83.4,56,82.1,56,80.6C56,80.7,56,80.7,56,80.6z"/>
	<path d="M27.2,85.9v17.4c0,0.8,0.6,1.4,1.4,1.4h12.7c0.8,0,1.4-0.6,1.4-1.4V85.9c2.3-0.6,4.1-2.7,4.1-5.2c0,0,0,0,0,0V67.2
		c0-0.8-0.6-1.4-1.4-1.4H24.5c-0.8,0-1.4,0.6-1.4,1.4v13.4c0,0,0,0,0,0C23.1,83.2,24.9,85.3,27.2,85.9z M25.9,80.6V68.6H44v12.1
		c0,0,0,0,0,0c0,1.5-1.2,2.7-2.7,2.7c-0.8,0-1.4,0.6-1.4,1.4c0,0,0,0,0,0v17.2h-9.9V84.7c0-0.8-0.6-1.4-1.4-1.4
		C27.1,83.4,25.9,82.1,25.9,80.6C25.9,80.6,25.9,80.6,25.9,80.6z"/>
	<path d="M69.6,35.8c0.1,0.1,0.3,0.2,0.4,0.3c0.2,0.1,0.3,0.1,0.5,0.1s0.4,0,0.5-0.1c0.2-0.1,0.3-0.2,0.4-0.3l8.9-8.9
		c0.5-0.5,0.5-1.4,0-1.9s-1.4-0.5-1.9,0L72,31.5V15.1c0-0.8-0.6-1.4-1.4-1.4c-0.8,0-1.4,0.6-1.4,1.4v16.4L62.7,25
		c-0.5-0.5-1.4-0.5-1.9,0c-0.5,0.5-0.5,1.4,0,1.9L69.6,35.8z"/>
	<path d="M18.7,27.2c0.4,0,0.7-0.1,1-0.4l8.4-8.4v16.4c0,0.8,0.6,1.4,1.4,1.4s1.4-0.6,1.4-1.4V18.4l7.6,7.6c0.3,0.3,0.6,0.4,1,0.4
		c0.4,0,0.7-0.1,1-0.4c0.5-0.5,0.5-1.4,0-1.9l-10-10c-0.1-0.1-0.3-0.2-0.4-0.3c-0.3-0.1-0.7-0.1-1.1,0c-0.2,0.1-0.3,0.2-0.4,0.3
		L17.7,24.8c-0.5,0.5-0.5,1.4,0,1.9C18,27.1,18.3,27.2,18.7,27.2z"/>
</g>
</svg>
