<?xml version="1.0" encoding="utf-8"?>
<!-- Generator: Adobe Illustrator 21.1.0, SVG Export Plug-In . SVG Version: 6.00 Build 0)  -->
<svg version="1.1"
	 id="Layer_1" xmlns:cc="http://creativecommons.org/ns#" xmlns:dc="http://purl.org/dc/elements/1.1/" xmlns:inkscape="http://www.inkscape.org/namespaces/inkscape" xmlns:rdf="http://www.w3.org/1999/02/22-rdf-syntax-ns#" xmlns:sodipodi="http://sodipodi.sourceforge.net/DTD/sodipodi-0.dtd" xmlns:svg="http://www.w3.org/2000/svg"
	 xmlns="http://www.w3.org/2000/svg" xmlns:xlink="http://www.w3.org/1999/xlink" x="0px" y="0px" viewBox="0 0 100 125"
	 style="enable-background:new 0 0 100 125;" xml:space="preserve">
<path d="M94,97.2v-9.9c0-4.2-2.6-7.2-5.5-8.4l-0.1,0L75,72.6c1.7-1.8,3.2-4,4.2-6.5c1.3-3.1,2.1-6.4,2.1-9c0-6.9-5.6-12.5-12.4-12.5
	c-6.8,0-12.4,5.6-12.4,12.5c0,2.7,0.8,5.9,2.1,9c1.1,2.5,2.5,4.7,4.2,6.5l-5.8,2.8v-6.4c0-4.3-2.6-7.2-5.6-8.4l-13.9-5.6
	c1.3-1.3,2.5-2.9,3.4-4.6c2.1-3.8,3.4-8.3,3.4-11.8C44.4,31.6,38.9,26,32,26s-12.4,5.6-12.4,12.5c0,3.4,1.3,7.9,3.4,11.8
	c1,1.8,2.1,3.4,3.4,4.6l-13.9,5.6c-3,1.2-5.6,4.1-5.6,8.4v9.9H3v2.6h43.1c-1.3,1.5-2.2,3.5-2.2,5.9v11.2v1.3h1.3H98v-2.6H94z
	 M25.3,49c-1.9-3.4-3.1-7.7-3.1-10.5c0-5.5,4.4-9.9,9.8-9.9s9.8,4.4,9.8,9.9c0,2.7-1.2,7-3.1,10.5c-0.9,1.7-2.1,3.2-3.3,4.2
	c-1.2,1-2.3,1.6-3.4,1.6c-1.1,0-2.3-0.5-3.4-1.6C27.4,52.2,26.3,50.7,25.3,49z M34.6,69L32,71.6L29.5,69l2.4-11.6c0.1,0,0.1,0,0.2,0
	c0.1,0,0.1,0,0.2,0L34.6,69z M9.6,78.8v-9.9c0-3.2,1.8-5.1,3.9-6L29,56.6c0.1,0,0.2,0.1,0.3,0.2l-2.5,12.5L26.6,70l0.5,0.5l4,4
	l0.9,0.9l0.9-0.9l4-4l0.5-0.5l-0.2-0.7l-2.5-12.5c0.1,0,0.2-0.1,0.3-0.2l15.5,6.3c2.1,0.9,3.9,2.8,3.9,6v7.7l-4.7,2.2H9.6z
	 M91.4,97.2H46.5v-9.9c0-3.2,1.8-5.1,3.9-6h0l0,0l15.1-7.2l1.9-0.9L65.9,72c-1.8-1.4-3.6-4.1-4.8-7c-1.2-2.8-1.9-5.9-1.9-8
	c0-5.5,4.4-9.9,9.8-9.9c5.4,0,9.8,4.4,9.8,9.9c0,2.1-0.7,5.2-1.9,8c-1.2,2.8-3,5.5-4.8,7l-1.6,1.3l1.9,0.9l15.1,7.2l0,0h0
	c2.1,0.9,3.9,2.8,3.9,6V97.2z"/>
</svg>
