<?xml version="1.0" encoding="utf-8"?>
<!-- Generator: Adobe Illustrator 21.1.0, SVG Export Plug-In . SVG Version: 6.00 Build 0)  -->
<svg version="1.1" id="Layer_1" xmlns="http://www.w3.org/2000/svg" xmlns:xlink="http://www.w3.org/1999/xlink" x="0px" y="0px"
	 viewBox="0 0 100 125" style="enable-background:new 0 0 100 125;" xml:space="preserve">
<title>대지 1 사본 71s</title>
<path d="M96.5,79.8h-1.8V45c0-0.7-0.6-1.2-1.2-1.2h-7.8V39c0-0.4-0.2-0.8-0.5-1c-0.3-0.2-0.7-0.3-1.1-0.2l-11.6,3.6V30
	c0-5.4-11.2-8.2-22.2-8.2S28,24.6,28,30v11.2l-11.2-3.4c-0.4-0.1-0.8,0-1.1,0.2c-0.3,0.2-0.5,0.6-0.5,1v4.8H7.5
	c-0.7,0-1.2,0.6-1.2,1.2v34.8H3.5c-0.7,0-1.2,0.6-1.2,1.2s0.6,1.2,1.2,1.2h21.8V84c0,0.4,0.2,0.8,0.5,1c0.2,0.2,0.5,0.3,0.8,0.3
	c0.1,0,0.2,0,0.3,0l10.8-3h6.6v18c0,0.6,0.5,1.2,1.1,1.2l5.8,0.8c0.1,0,0.1,0,0.2,0c0,0,0,0,0,0c0,0,0,0,0,0c0,0,0,0,0,0
	c0,0,0,0,0,0c0.1,0,0.2,0,0.3,0l10.7-2.3v2.3c0,0.6,0.5,1.2,1.1,1.2l5.8,0.8c0.1,0,0.1,0,0.2,0c0,0,0,0,0,0c0,0,0,0,0,0c0,0,0,0,0,0
	c0,0,0,0,0,0c0.1,0,0.2,0,0.3,0l15.7-3.3c0.6-0.1,1-0.6,1-1.2V82.2h10.2c0.7,0,1.2-0.6,1.2-1.2S97.2,79.8,96.5,79.8z M15.2,79.8H8.8
	V46.2h6.5V79.8z M72.5,44l10.7-3.3v33.9L82,74.7c-0.2-2.7-0.8-4.9-2.3-6.1c-1-0.8-2.4-1.1-3.9-0.8V64c0-0.6-0.4-1.1-0.9-1.2
	l-2.3-0.6V44z M79.5,75L76,75.4c0-0.5-0.1-1-0.2-1.5v-3.6c0.1-0.1,0.3-0.1,0.4-0.2c1.3-0.3,1.8,0.2,2,0.3C79,71.3,79.4,73.1,79.5,75
	z M73.2,65v4.4c-1-0.6-2.4-0.9-3.6-0.5c-1.2,0.3-2.6,1.2-3.3,3.6l-1.8,0.2V62.6L73.2,65z M70,54.3v7.2L64.5,60v-7.2
	C66.4,53.2,68.2,53.7,70,54.3z M64.5,50.2v-7.4c1.9,0.4,3.7,0.9,5.5,1.5v7.4C68.2,51.1,66.4,50.6,64.5,50.2z M30.5,44.3
	c1.8-0.6,3.6-1.1,5.5-1.6v7.4c-1.9,0.4-3.7,0.9-5.5,1.5V44.3z M30.5,54.3c1.8-0.6,3.6-1.1,5.5-1.6v7.4l-5.5,1.5V54.3z M26.2,62.8
	c-0.5,0.1-0.9,0.6-0.9,1.2v15.8h-7.5V40.7L28,43.9v18.4L26.2,62.8z M27.8,82.4V65l8.3-2.3V80c0,0,0,0.1,0,0.1L27.8,82.4z M44.2,75.4
	v4.3h-5.7V62.3c7.8-1.3,15.7-1.3,23.5,0V67c-0.1-0.1-0.2-0.3-0.4-0.4c-1.1-0.9-2.4-1.1-4.1-0.8c-1,0.2-1.8,0.8-2.3,1.6
	c-1-0.7-2.4-0.9-3.7-0.5c-1.7,0.4-3.7,2-3.8,7.3h-2.3C44.8,74.2,44.2,74.7,44.2,75.4z M44.8,51.4V59c-2.1,0.2-4.1,0.4-6.2,0.8v-7.5
	C40.6,51.8,42.7,51.5,44.8,51.4z M38.5,49.7v-7.5c2.1-0.4,4.1-0.7,6.2-0.8v7.5C42.7,49,40.6,49.3,38.5,49.7z M50.3,51.2c1,0,2,0,3,0
	v7.5c-2-0.1-4.1-0.1-6.1,0v-7.6C48.3,51.2,49.3,51.2,50.3,51.2z M47.2,48.8v-7.5c1,0,2,0,3.1,0c1,0,2,0,3,0v7.5c-1,0-2-0.1-3,0
	C49.3,48.7,48.3,48.7,47.2,48.8z M62,52.3v7.5c-2.1-0.3-4.1-0.6-6.2-0.8v-7.5C57.9,51.6,60,51.9,62,52.3z M55.8,48.9v-7.5
	c2.1,0.2,4.1,0.5,6.2,0.8v7.5C60,49.4,57.9,49.1,55.8,48.9z M61.5,73L58,73.4c-0.1-1.4-0.5-2.7-1-3.9c0.3-0.7,0.7-1.2,1.2-1.3
	c1.3-0.3,1.8,0.2,2,0.3C61,69.3,61.4,71.1,61.5,73z M50,99.6l-3.3-0.5V76.7H50V99.6z M51.2,74.2h-0.9c0.1-2.8,0.7-4.6,1.8-4.8
	c0,0,0.1,0,0.1,0c0.8-0.2,1.6,0,2,0.5c-0.3,1.3-0.4,2.8-0.4,4.1L51.2,74.2z M62.2,97.4l-9.7,2.1V76.5l1.4-0.2
	c0.1,0.8,0.2,1.4,0.2,1.6c0.1,0.6,0.6,1.1,1.2,1.1c0.1,0,0.1,0,0.2,0c0.7-0.1,1.1-0.8,1-1.4c-0.1-0.5-0.1-1-0.2-1.5l0.3,0
	c0,0,0,0,0,0c0,0,0.1,0,0.1,0l4.7-0.5c0,0.5,0,1,0,1.4c0,0.4,0.2,0.8,0.6,1V97.4z M50.3,38.8c-6.6-0.2-13.4,0.8-19.8,2.9V30
	c0-2.4,7.5-5.8,19.8-5.8S70,27.6,70,30v11.7C63.6,39.7,56.9,38.7,50.3,38.8z M64.1,75.2l1.6-0.2v1.1h-1.6
	C64.1,75.8,64.1,75.5,64.1,75.2z M68,101.6l-3.3-0.5V78.7H68V101.6z M69.2,76.2h-0.9c0.1-2.8,0.7-4.6,1.8-4.8c0,0,0.1,0,0.1,0
	c0.7-0.2,1.5,0,2,0.5c-0.3,1.3-0.4,2.8-0.4,4.1L69.2,76.2z M83.8,98.7l-13.2,2.8V78.5l1.4-0.2c0.1,0.8,0.2,1.4,0.2,1.6
	c0.1,0.6,0.6,1,1.2,1c0.1,0,0.1,0,0.2,0c0.7-0.1,1.1-0.8,1-1.4c-0.1-0.4-0.1-0.9-0.2-1.5l0.3,0c0,0,0,0,0,0c0,0,0.1,0,0.1,0l4.7-0.5
	c0,0.5,0,1,0,1.4c0,0.7,0.6,1.2,1.2,1.2s1.2-0.6,1.2-1.2c0-0.6,0-1.1,0-1.7l1.6-0.2V98.7z M92.2,79.8h-6v-4c0-0.4-0.1-0.7-0.4-0.9
	c0,0-0.1,0-0.1-0.1V46.2h6.5V79.8z"/>
</svg>
