<?xml version="1.0" encoding="utf-8"?>
<!-- Generator: Adobe Illustrator 21.1.0, SVG Export Plug-In . SVG Version: 6.00 Build 0)  -->
<svg version="1.1" id="Layer_1" xmlns="http://www.w3.org/2000/svg" xmlns:xlink="http://www.w3.org/1999/xlink" x="0px" y="0px"
	 viewBox="0 0 100 125" style="enable-background:new 0 0 100 125;" xml:space="preserve">
<title>fb-web-19</title>
<g>
	<path d="M45.3,97.8c0.2,0.2,0.5,0.4,0.7,0.6h0.2l0.6,0.3h0.3c0.2,0.1,0.4,0.1,0.6,0.2c0.3,0,0.6,0,0.9,0c0.3,0,0.6,0,0.9,0
		c0.2,0,0.4-0.1,0.6-0.2h0.3l0.6-0.3h0.2l0.7-0.6l37.6-37.6c1.9-1.9,1.9-4.9,0-6.7c-1.9-1.9-4.9-1.9-6.7,0L53.4,83V9.7
		c0-2.6-2.1-4.7-4.7-4.7s-4.7,2.1-4.7,4.7v73.4L14.4,53.5c-1.9-1.9-4.9-1.9-6.7,0c-1.9,1.9-1.9,4.9,0,6.7L45.3,97.8z"/>
	<path d="M86.3,109.5H11.1c-2.6,0-4.7,2.1-4.7,4.7s2.1,4.7,4.7,4.7h75.2c2.6,0,4.7-2.1,4.7-4.7S88.9,109.5,86.3,109.5z"/>
</g>
</svg>
