<svg xmlns="http://www.w3.org/2000/svg" xmlns:xlink="http://www.w3.org/1999/xlink" xml:space="preserve" style="shape-rendering:geometricPrecision;text-rendering:geometricPrecision;image-rendering:optimizeQuality;" viewBox="0 0 2048 2560" x="0px" y="0px" fill-rule="evenodd" clip-rule="evenodd"><defs><style type="text/css">
   
    .fil1 {fill:none}
    .fil0 {fill:black;fill-rule:nonzero}
   
  </style></defs><g><g><path class="fil0" d="M653.75 255.999l740.5 0 24 0 0 24 0 1488 0 24 -24 0 -740.5 0 -24 0 0 -24 0 -1488 0 -24 24 0zm716.5 48l-692.5 0 0 1440 692.5 0 0 -1440z"/><path class="fil0" d="M796.853 492.779l136.289 0 24 0 0 24 0 183.53 0 24 -24 0 -136.289 0 -24 0 0 -24 0 -183.53 0 -24 24 0zm112.289 48l-88.2887 0 0 135.53 88.2887 0 0 -135.53z"/><path class="fil0" d="M1114.86 492.779l136.289 0 24 0 0 24 0 183.53 0 24 -24 0 -136.289 0 -24 0 0 -24 0 -183.53 0 -24 24 0zm112.289 48l-88.2887 0 0 135.53 88.2887 0 0 -135.53z"/><path class="fil0" d="M796.853 908.781l136.289 0 24 0 0 24 0 183.532 0 24 -24 0 -136.289 0 -24 0 0 -24 0 -183.532 0 -24 24 0zm112.289 48l-88.2887 0 0 135.532 88.2887 0 0 -135.532z"/><path class="fil0" d="M1114.86 908.781l136.289 0 24 0 0 24 0 183.532 0 24 -24 0 -136.289 0 -24 0 0 -24 0 -183.532 0 -24 24 0zm112.289 48l-88.2887 0 0 135.532 88.2887 0 0 -135.532z"/><path class="fil0" d="M796.853 1324.78l136.289 0 24 0 0 24 0 183.53 0 24 -24 0 -136.289 0 -24 0 0 -24 0 -183.53 0 -24 24 0zm112.289 48l-88.2887 0 0 135.53 88.2887 0 0 -135.53z"/><path class="fil0" d="M1114.86 1324.78l136.289 0 24 0 0 24 0 183.53 0 24 -24 0 -136.289 0 -24 0 0 -24 0 -183.53 0 -24 24 0zm112.289 48l-88.2887 0 0 135.53 88.2887 0 0 -135.53z"/><polygon class="fil0" points="444.585,1744 1603.41,1744 1603.41,1792 444.585,1792 "/></g></g><rect class="fil1" width="2048" height="2048"/><text x="0" y="2063" fill="#000000" font-size="5px" font-weight="bold" font-family="'Helvetica Neue', Helvetica, Arial-Unicode, Arial, Sans-serif">Created by IYIKON</text><text x="0" y="2068" fill="#000000" font-size="5px" font-weight="bold" font-family="'Helvetica Neue', Helvetica, Arial-Unicode, Arial, Sans-serif">from the Noun Project</text></svg>