<?xml version="1.0" encoding="utf-8"?>
<!-- Generator: Adobe Illustrator 21.1.0, SVG Export Plug-In . SVG Version: 6.00 Build 0)  -->
<svg version="1.1" id="Layer_1" xmlns="http://www.w3.org/2000/svg" xmlns:xlink="http://www.w3.org/1999/xlink" x="0px" y="0px"
	 viewBox="0 0 100 125" style="enable-background:new 0 0 100 125;" xml:space="preserve">
<g>
	<path d="M86.9,29.7l-13.9,0h0h0c-3.5,0-6.8,1.4-9.2,3.8l-8.6,8.6v-2.7c0-2.1-0.9-4.1-2.2-5.5c2.6-1.4,4.4-4.2,4.4-7.3
		c0-4.6-3.8-8.4-8.4-8.4c-4.6,0-8.4,3.7-8.4,8.4c0,2.4,1,4.5,2.6,6.1c-2.3,1.4-3.8,3.9-3.8,6.8V58L21.6,75.7h-8.5
		C5.9,75.7,0,81.6,0,88.8s5.9,13.1,13.1,13.1H27c3.5,0,6.8-1.4,9.2-3.8l42.2-42.2l8.5,0c7.2,0,13.1-5.9,13.1-13.1
		C100,35.5,94.1,29.7,86.9,29.7z M48.9,22.1c2.5,0,4.5,2,4.5,4.5c0,2.5-2,4.5-4.5,4.5c-2.5,0-4.5-2-4.5-4.5
		C44.5,24.1,46.5,22.1,48.9,22.1z M43.2,39.4c0-2.2,1.8-4,4-4c2.2,0,4,1.8,4,4V46l-8,8h0V39.4z M86.9,51.9l-10.1,0L33.5,95.2
		c-1.7,1.7-4,2.7-6.5,2.7H13.1c-5,0-9.2-4.1-9.2-9.2s4.1-9.2,9.2-9.2h10.1l43.3-43.3c1.7-1.7,4-2.7,6.5-2.7l13.9,0
		c5,0,9.2,4.1,9.2,9.2C96.1,47.8,92,51.9,86.9,51.9z"/>
	<polygon points="71.8,78 74.6,80.8 80.1,75.3 80.1,94.5 84,94.5 84,75.3 89.5,80.8 92.3,78 82,67.8 	"/>
</g>
</svg>
