<?xml version="1.0" encoding="utf-8"?>
<!-- Generator: Adobe Illustrator 21.1.0, SVG Export Plug-In . SVG Version: 6.00 Build 0)  -->
<svg version="1.1" id="Layer_1" xmlns="http://www.w3.org/2000/svg" xmlns:xlink="http://www.w3.org/1999/xlink" x="0px" y="0px"
	 viewBox="0 0 100 125" style="enable-background:new 0 0 100 125;" xml:space="preserve">
<g>
	<path d="M12.8,71.4h5.9c0.7,0,1.2-0.5,1.2-1.2v-6.5c0-0.7-0.5-1.2-1.2-1.2h-5.9c-0.7,0-1.2,0.5-1.2,1.2v6.5
		C11.6,70.8,12.2,71.4,12.8,71.4z M14,64.8h3.5v4.1H14V64.8z"/>
	<path d="M25.3,71.4h5.9c0.7,0,1.2-0.5,1.2-1.2v-6.5c0-0.7-0.5-1.2-1.2-1.2h-5.9c-0.7,0-1.2,0.5-1.2,1.2v6.5
		C24.1,70.8,24.7,71.4,25.3,71.4z M26.5,64.8H30v4.1h-3.5V64.8z"/>
	<path d="M12.8,85.9h5.9c0.7,0,1.2-0.5,1.2-1.2v-6.5c0-0.7-0.5-1.2-1.2-1.2h-5.9c-0.7,0-1.2,0.5-1.2,1.2v6.5
		C11.6,85.4,12.2,85.9,12.8,85.9z M14,79.4h3.5v4.1H14V79.4z"/>
	<path d="M25.3,85.9h5.9c0.7,0,1.2-0.5,1.2-1.2v-6.5c0-0.7-0.5-1.2-1.2-1.2h-5.9c-0.7,0-1.2,0.5-1.2,1.2v6.5
		C24.1,85.4,24.7,85.9,25.3,85.9z M26.5,79.4H30v4.1h-3.5V79.4z"/>
	<path d="M12.8,100h5.9c0.7,0,1.2-0.5,1.2-1.2v-6.5c0-0.7-0.5-1.2-1.2-1.2h-5.9c-0.7,0-1.2,0.5-1.2,1.2v6.5
		C11.6,99.5,12.2,100,12.8,100z M14,93.5h3.5v4.1H14V93.5z"/>
	<path d="M25.3,100h5.9c0.7,0,1.2-0.5,1.2-1.2v-6.5c0-0.7-0.5-1.2-1.2-1.2h-5.9c-0.7,0-1.2,0.5-1.2,1.2v6.5
		C24.1,99.5,24.7,100,25.3,100z M26.5,93.5H30v4.1h-3.5V93.5z"/>
	<path d="M12.8,56.9h5.9c0.7,0,1.2-0.5,1.2-1.2v-6.5c0-0.7-0.5-1.2-1.2-1.2h-5.9c-0.7,0-1.2,0.5-1.2,1.2v6.5
		C11.6,56.4,12.2,56.9,12.8,56.9z M14,50.4h3.5v4.1H14V50.4z"/>
	<path d="M25.3,56.9h5.9c0.7,0,1.2-0.5,1.2-1.2v-6.5c0-0.7-0.5-1.2-1.2-1.2h-5.9c-0.7,0-1.2,0.5-1.2,1.2v6.5
		C24.1,56.4,24.7,56.9,25.3,56.9z M26.5,50.4H30v4.1h-3.5V50.4z"/>
	<path d="M68.8,71.4h5.9c0.7,0,1.2-0.5,1.2-1.2v-6.5c0-0.7-0.5-1.2-1.2-1.2h-5.9c-0.7,0-1.2,0.5-1.2,1.2v6.5
		C67.6,70.8,68.1,71.4,68.8,71.4z M70,64.8h3.5v4.1H70V64.8z"/>
	<path d="M81.1,71.4H87c0.7,0,1.2-0.5,1.2-1.2v-6.5c0-0.7-0.5-1.2-1.2-1.2h-5.9c-0.7,0-1.2,0.5-1.2,1.2v6.5
		C79.9,70.8,80.5,71.4,81.1,71.4z M82.3,64.8h3.5v4.1h-3.5V64.8z"/>
	<path d="M68.8,85.9h5.9c0.7,0,1.2-0.5,1.2-1.2v-6.5c0-0.7-0.5-1.2-1.2-1.2h-5.9c-0.7,0-1.2,0.5-1.2,1.2v6.5
		C67.6,85.4,68.1,85.9,68.8,85.9z M70,79.4h3.5v4.1H70V79.4z"/>
	<path d="M81.1,85.9H87c0.7,0,1.2-0.5,1.2-1.2v-6.5c0-0.7-0.5-1.2-1.2-1.2h-5.9c-0.7,0-1.2,0.5-1.2,1.2v6.5
		C79.9,85.4,80.5,85.9,81.1,85.9z M82.3,79.4h3.5v4.1h-3.5V79.4z"/>
	<path d="M68.8,100h5.9c0.7,0,1.2-0.5,1.2-1.2v-6.5c0-0.7-0.5-1.2-1.2-1.2h-5.9c-0.7,0-1.2,0.5-1.2,1.2v6.5
		C67.6,99.5,68.1,100,68.8,100z M70,93.5h3.5v4.1H70V93.5z"/>
	<path d="M81.1,100H87c0.7,0,1.2-0.5,1.2-1.2v-6.5c0-0.7-0.5-1.2-1.2-1.2h-5.9c-0.7,0-1.2,0.5-1.2,1.2v6.5
		C79.9,99.5,80.5,100,81.1,100z M82.3,93.5h3.5v4.1h-3.5V93.5z"/>
	<path d="M68.8,56.9h5.9c0.7,0,1.2-0.5,1.2-1.2v-6.5c0-0.7-0.5-1.2-1.2-1.2h-5.9c-0.7,0-1.2,0.5-1.2,1.2v6.5
		C67.6,56.4,68.1,56.9,68.8,56.9z M70,50.4h3.5v4.1H70V50.4z"/>
	<path d="M81.1,56.9H87c0.7,0,1.2-0.5,1.2-1.2v-6.5c0-0.7-0.5-1.2-1.2-1.2h-5.9c-0.7,0-1.2,0.5-1.2,1.2v6.5
		C79.9,56.4,80.5,56.9,81.1,56.9z M82.3,50.4h3.5v4.1h-3.5V50.4z"/>
	<path d="M93.8,41.1H63.3v-6.4c0-0.7-0.5-1.2-1.2-1.2H51.2v-4.3h10.9c0.7,0,1.2-0.5,1.2-1.2v-6.8c0-0.7-0.5-1.2-1.2-1.2H50
		c-0.7,0-1.2,0.5-1.2,1.2V28v5.5H37.9c-0.7,0-1.2,0.5-1.2,1.2v6.4H6.2c-0.7,0-1.2,0.5-1.2,1.2V106c0,0.7,0.5,1.2,1.2,1.2h87.6
		c0.7,0,1.2-0.5,1.2-1.2V42.3C95,41.6,94.5,41.1,93.8,41.1z M51.2,22.4h9.7v4.3h-9.7V22.4z M36.7,104.8H7.4V43.5h29.3V104.8z
		 M60.9,104.8H39.1v-3h21.7V104.8z M46.4,99.4V86h7.4v13.4H46.4z M60.9,99.4H56V84.8c0.1-0.6-0.5-1.2-1.1-1.2h-9.8
		c-0.7,0-1.2,0.5-1.2,1.2v14.6h-4.8V68h21.7V99.4z M60.9,42.3v23.4H39.1V35.9h21.7V42.3z M92.6,104.8H63.3V43.5h29.3V104.8z"/>
	<path d="M49.9,57.9c3.7,0,6.8-3,6.8-6.8c0-3.7-3-6.8-6.8-6.8c-3.7,0-6.8,3-6.8,6.8C43.1,54.9,46.1,57.9,49.9,57.9z M49.9,46.7
		c2.4,0,4.3,1.9,4.3,4.3c0,2.4-1.9,4.3-4.3,4.3c-2.4,0-4.3-1.9-4.3-4.3C45.5,48.6,47.5,46.7,49.9,46.7z"/>
</g>
</svg>
