<?xml version="1.0" encoding="utf-8"?>
<!-- Generator: Adobe Illustrator 21.1.0, SVG Export Plug-In . SVG Version: 6.00 Build 0)  -->
<svg version="1.1" id="Layer_1" xmlns="http://www.w3.org/2000/svg" xmlns:xlink="http://www.w3.org/1999/xlink" x="0px" y="0px"
	 viewBox="0 0 144.1 180" style="enable-background:new 0 0 144.1 180;" xml:space="preserve">
<g>
	<path d="M138.6,84.9L129.2,71l1.3-16.7c0.1-0.8-0.4-1.6-1.1-2L114.2,45l-7.3-15.1c-0.4-0.8-1.1-1.2-2-1.1L88.2,30l-13.8-9.5
		c-0.7-0.5-1.6-0.5-2.3,0L58.2,30l-16.7-1.3c-0.9-0.1-1.6,0.4-2,1.1L32.3,45l-15.1,7.3c-0.8,0.4-1.2,1.1-1.1,2L17.3,71L7.8,84.9
		c-0.5,0.7-0.5,1.6,0,2.3l9.5,13.8L16,117.7c-0.1,0.8,0.4,1.6,1.1,2l15.1,7.3l7.3,15.1c0.4,0.8,1.1,1.2,2,1.1l16.7-1.3l13.8,9.5
		c0.3,0.2,0.7,0.4,1.1,0.4c0.4,0,0.8-0.1,1.1-0.4l13.8-9.5l16.7,1.3c0.9,0.1,1.6-0.4,2-1.1l7.3-15.1l15.1-7.3c0.8-0.4,1.2-1.1,1.1-2
		l-1.3-16.7l9.5-13.8C139.1,86.5,139.1,85.5,138.6,84.9z M125.4,99.3c-0.3,0.4-0.4,0.8-0.3,1.3l1.2,16.1l-14.5,7
		c-0.4,0.2-0.8,0.5-0.9,0.9l-7,14.5l-16.1-1.2c-0.5,0-0.9,0.1-1.3,0.3l-13.3,9.1l-13.3-9.1c-0.3-0.2-0.7-0.4-1.1-0.4
		c-0.1,0-0.1,0-0.2,0l-16.1,1.2l-7-14.5c-0.2-0.4-0.5-0.8-0.9-0.9l-14.5-7l1.2-16.1c0-0.5-0.1-0.9-0.3-1.3L11.9,86L21,72.7
		c0.3-0.4,0.4-0.8,0.3-1.3l-1.2-16.1l14.5-7c0.4-0.2,0.8-0.5,0.9-0.9l7-14.5l16.1,1.2c0.5,0,0.9-0.1,1.3-0.3l13.3-9.1l13.3,9.1
		c0.4,0.3,0.8,0.4,1.3,0.3l16.1-1.2l7,14.5c0.2,0.4,0.5,0.8,0.9,0.9l14.5,7l-1.2,16.1c0,0.5,0.1,0.9,0.3,1.3l9.1,13.3L125.4,99.3z"
		/>
	<path d="M87.6,70.6h-3.2c1.2-3.2,2.7-8.3,1-12.3c-0.9-2.1-2.5-3.6-4.8-4.3c-3.8-1.2-7.1,3.3-10.8,10.4c-1.9,3.6-4.6,6.6-6.5,8.2
		c-0.5,0.4-0.9,0.8-1.2,1.2c-1.4-1.6-3.4-2.6-5.6-2.6c-4.1,0-7.4,3.3-7.4,7.4v22.9c0,4.1,3.3,7.4,7.4,7.4c2.4,0,4.5-1.1,5.8-2.9
		c1.7,1.7,4.1,2.8,6.8,2.8h19.3c7.2,0,8.7-4.2,8.7-7.7V80.2C97.2,74.9,92.9,70.6,87.6,70.6z M56.6,104.8c-1.8,0-3.3-1.5-3.3-3.4
		V78.6c0-1.8,1.5-3.4,3.3-3.4c1.6,0,2.9,1.1,3.3,2.6c-0.3,1-0.3,1.8-0.3,2.5v18.9c0,0.9,0.1,1.7,0.4,2.5
		C59.8,103.5,58.4,104.8,56.6,104.8z M93.2,101.1c0,2.4-0.7,3.7-4.6,3.7H69.2c-2.4,0-4.4-1.5-5.2-3.6V78.6c0-0.1,0-0.2,0-0.3
		c0.3-0.8,0.9-1.7,2-2.7l0,0c2.2-1.9,5.3-5.3,7.5-9.4c4.2-8,5.8-8.4,6-8.4c1.1,0.4,1.8,1,2.3,2c1.3,3.1-0.6,8.8-2.2,11.8l-1.5,3h9.6
		c3.1,0,5.6,2.5,5.6,5.6V101.1z"/>
</g>
</svg>
