<?xml version="1.0" encoding="utf-8"?>
<!-- Generator: Adobe Illustrator 21.1.0, SVG Export Plug-In . SVG Version: 6.00 Build 0)  -->
<svg version="1.1" id="Layer_1" xmlns="http://www.w3.org/2000/svg" xmlns:xlink="http://www.w3.org/1999/xlink" x="0px" y="0px"
	 viewBox="0 0 100 125" style="enable-background:new 0 0 100 125;" xml:space="preserve">
<path d="M70.3,35.8h4v4c0,0.6,0.5,1.1,1.1,1.1h6.7c0.6,0,1.1-0.5,1.1-1.1v-4h4c0.6,0,1.1-0.5,1.1-1.1V28c0-0.6-0.5-1.1-1.1-1.1h-4
	v-4c0-0.6-0.5-1.1-1.1-1.1h-6.7c-0.6,0-1.1,0.5-1.1,1.1v4h-4c-0.6,0-1.1,0.5-1.1,1.1v6.7C69.2,35.3,69.7,35.8,70.3,35.8z M71.4,29.2
	h4c0.6,0,1.1-0.5,1.1-1.1v-4H81v4c0,0.6,0.5,1.1,1.1,1.1h4v4.4h-4c-0.6,0-1.1,0.5-1.1,1.1v4h-4.4v-4c0-0.6-0.5-1.1-1.1-1.1h-4V29.2z
	"/>
<path d="M7.1,100.8c-0.6,0-1.1,0.5-1.1,1.1c0,0.6,0.5,1.1,1.1,1.1h86.8c0.6,0,1.1-0.5,1.1-1.1c0-0.6-0.5-1.1-1.1-1.1h-2.2v-3h2.1
	c0.6,0,1.1-0.5,1.1-1.1V15.1c0-0.6-0.5-1.1-1.1-1.1H62.6c-0.6,0-1.1,0.5-1.1,1.1v81.5c0,0.6,0.5,1.1,1.1,1.1h2.1v3H47.8v-9.2h7.9
	c1.9,0,3.4-1.5,3.4-3.4v-3.8c0-0.6-0.5-1.1-1.1-1.1h-1.2V69.1c0-3.9-3.2-7.1-7.1-7.1h-6c-3.9,0-7.1,3.2-7.1,7.1v14.3h-1.2
	c-0.6,0-1.1,0.5-1.1,1.1v1.9h-3.5v-1.9c0-0.6-0.5-1.1-1.1-1.1h-1.2V69.1c0-3.9-3.2-7.1-7.1-7.1h-6c-3.9,0-7.1,3.2-7.1,7.1v14.3H7.1
	c-0.6,0-1.1,0.5-1.1,1.1v3.8c0,1.9,1.5,3.4,3.4,3.4h7.9v9.2H7.1z M63.7,16.2h29v79.3h-29V16.2z M66.9,97.8h22.6v3H66.9V97.8z
	 M38.8,69.1c0-2.7,2.2-4.8,4.8-4.8h6c2.7,0,4.8,2.2,4.8,4.8v14.3H38.8V69.1z M36.5,85.6h20.3v2.6c0,0.6-0.5,1.1-1.1,1.1h-18
	c-0.6,0-1.1-0.5-1.1-1.1L36.5,85.6L36.5,85.6z M10.6,69.1c0-2.7,2.2-4.8,4.8-4.8h6c2.7,0,4.8,2.2,4.8,4.8v14.3H10.6V69.1z M8.2,88.2
	v-2.6h20.3v2.6c0,0.6-0.5,1.1-1.1,1.1h-18C8.7,89.4,8.2,88.9,8.2,88.2z M19.5,91.6h7.9c1.7,0,3.1-1.3,3.3-3h3.6c0.2,1.7,1.6,3,3.3,3
	h7.9v9.2h-26V91.6z"/>
<path d="M82,49.5c-0.6,0-1.1,0.5-1.1,1.1s0.5,1.1,1.1,1.1h3.9c0.6,0,1.1-0.5,1.1-1.1s-0.5-1.1-1.1-1.1H82z"/>
<path d="M87.8,55.1H82c-0.6,0-1.1,0.5-1.1,1.1c0,0.6,0.5,1.1,1.1,1.1h5.8c0.6,0,1.1-0.5,1.1-1.1C88.9,55.6,88.4,55.1,87.8,55.1z"/>
<path d="M79.8,53c-0.1-0.1-0.1-0.3-0.2-0.4l-4.1-4.1c-0.4-0.4-1.1-0.4-1.6,0c-0.4,0.4-0.4,1.1,0,1.6l2.2,2.2h-6.6
	c-0.6,0-1.1,0.5-1.1,1.1s0.5,1.1,1.1,1.1h6.6l-2.2,2.2c-0.4,0.4-0.4,1.1,0,1.6c0.2,0.2,0.5,0.3,0.8,0.3c0.3,0,0.6-0.1,0.8-0.3
	l4.1-4.1c0.1-0.1,0.2-0.2,0.2-0.4C79.9,53.6,79.9,53.3,79.8,53z"/>
<path d="M82,84h3.9c0.6,0,1.1-0.5,1.1-1.1c0-0.6-0.5-1.1-1.1-1.1H82c-0.6,0-1.1,0.5-1.1,1.1C80.9,83.5,81.4,84,82,84z"/>
<path d="M87.8,87.4H82c-0.6,0-1.1,0.5-1.1,1.1c0,0.6,0.5,1.1,1.1,1.1h5.8c0.6,0,1.1-0.5,1.1-1.1C88.9,87.9,88.4,87.4,87.8,87.4z"/>
<path d="M82,68.1h3.9c0.6,0,1.1-0.5,1.1-1.1s-0.5-1.1-1.1-1.1H82c-0.6,0-1.1,0.5-1.1,1.1S81.4,68.1,82,68.1z"/>
<path d="M87.8,71.6H82c-0.6,0-1.1,0.5-1.1,1.1s0.5,1.1,1.1,1.1h5.8c0.6,0,1.1-0.5,1.1-1.1S88.4,71.6,87.8,71.6z"/>
<path d="M77.8,81.9c-0.1-0.1-0.3-0.1-0.4-0.1h-5.9c-0.6,0-1.1,0.5-1.1,1.1c0,0.6,0.5,1.1,1.1,1.1h3.2L70,88.7
	c-0.4,0.4-0.4,1.1,0,1.6c0.2,0.2,0.5,0.3,0.8,0.3c0.3,0,0.6-0.1,0.8-0.3l4.7-4.7v3.2c0,0.6,0.5,1.1,1.1,1.1s1.1-0.5,1.1-1.1v-5.9
	c0-0.1,0-0.3-0.1-0.4C78.3,82.2,78.1,82,77.8,81.9z"/>
<path d="M78.4,66.5c-0.1-0.3-0.3-0.5-0.6-0.6c-0.1-0.1-0.3-0.1-0.4-0.1h-5.9c-0.6,0-1.1,0.5-1.1,1.1s0.5,1.1,1.1,1.1h3.2L70,72.7
	c-0.4,0.4-0.4,1.1,0,1.6c0.2,0.2,0.5,0.3,0.8,0.3c0.3,0,0.6-0.1,0.8-0.3l4.7-4.7v3.2c0,0.6,0.5,1.1,1.1,1.1c0.6,0,1.1-0.5,1.1-1.1
	v-5.9c0,0,0,0,0,0C78.5,66.8,78.5,66.6,78.4,66.5z"/>
</svg>
