<?xml version="1.0" encoding="utf-8"?>
<!-- Generator: Adobe Illustrator 21.1.0, SVG Export Plug-In . SVG Version: 6.00 Build 0)  -->
<svg version="1.1" id="Layer_1" xmlns="http://www.w3.org/2000/svg" xmlns:xlink="http://www.w3.org/1999/xlink" x="0px" y="0px"
	 viewBox="0 0 512 640" style="enable-background:new 0 0 512 640;" xml:space="preserve">
<g>
	<rect x="137.9" y="486.6" width="242.8" height="12.7"/>
	<rect x="86.1" y="458.7" width="18.8" height="12.7"/>
	<rect x="412.6" y="459.1" width="18.8" height="12.7"/>
	<path d="M175,171.6h37.8v-37.8H175V171.6z M187.7,146.5H200v12.3h-12.3V146.5z"/>
	<path d="M277.7,133.8h-37.8v37.8h37.8V133.8z M264.9,158.8h-12.3v-12.3h12.3V158.8z"/>
	<path d="M302,171.6h37.8v-37.8H302V171.6z M314.7,146.5H327v12.3h-12.3V146.5z"/>
	<path d="M176.4,280.3h37.8v-37.8h-37.8V280.3z M189.1,255.2h12.3v12.3h-12.3V255.2z"/>
	<path d="M239.8,280.3h37.8v-37.8h-37.8V280.3z M252.6,255.2L252.6,255.2h12.3v12.3h-12.3V255.2z"/>
	<path d="M341.2,242.5h-37.8v37.8h37.8V242.5z M328.4,267.6h-12.3v-12.3h12.3V267.6z"/>
	<path d="M214.2,296.8h-37.8v37.8h37.8V296.8z M201.4,321.9h-12.3v-12.3h12.3V321.9z"/>
	<path d="M239.8,334.7h37.8v-37.8h-37.8V334.7z M252.6,309.6L252.6,309.6h12.3v12.3h-12.3V309.6z"/>
	<path d="M303.3,334.7h37.8v-37.8h-37.8V334.7z M316.1,309.6h12.3v12.3h-12.3V309.6z"/>
	<path d="M175,225.9h37.8v-37.8H175V225.9z M187.7,200.9H200v12.3h-12.3V200.9z"/>
	<path d="M239.8,225.9h37.8v-37.8h-37.8V225.9z M252.6,200.9L252.6,200.9h12.3v12.3h-12.3V200.9z"/>
	<path d="M302,225.9h37.8v-37.8H302V225.9z M314.7,200.9H327v12.3h-12.3V200.9z"/>
	<rect x="413.9" y="273.9" width="14.6" height="14.6"/>
	<rect x="441.3" y="273.9" width="14.6" height="14.6"/>
	<rect x="386.6" y="273.9" width="14.6" height="14.6"/>
	<rect x="413.9" y="301.1" width="14.6" height="14.6"/>
	<rect x="441.3" y="301.1" width="14.6" height="14.6"/>
	<rect x="386.6" y="301.1" width="14.6" height="14.6"/>
	<rect x="413.9" y="328.4" width="14.6" height="14.6"/>
	<rect x="441.3" y="328.4" width="14.6" height="14.6"/>
	<rect x="386.6" y="328.4" width="14.6" height="14.6"/>
	<rect x="86.1" y="273.9" width="14.6" height="14.6"/>
	<rect x="113.5" y="273.9" width="14.6" height="14.6"/>
	<rect x="58.8" y="273.9" width="14.6" height="14.6"/>
	<rect x="86.1" y="301.1" width="14.6" height="14.6"/>
	<rect x="113.5" y="301.1" width="14.6" height="14.6"/>
	<rect x="58.8" y="301.1" width="14.6" height="14.6"/>
	<rect x="86.1" y="328.4" width="14.6" height="14.6"/>
	<rect x="113.5" y="328.4" width="14.6" height="14.6"/>
	<rect x="58.8" y="328.4" width="14.6" height="14.6"/>
	<path d="M183.4,385h21.1v53.3h-8.4V412h-12.7v26.3h-10.1V451h31.2v23.5h12.7V451h13.5H284h13.5v23.5h12.7V451H347v-12.7h-15.7
		v-31.4h-12.7v31.4h-8.4V385h21.1v-33.8H183.4V385z M271.3,438.3h-27.7v-32h27.7V438.3z M297.6,438.3H284v-44.7h-53.2v44.7h-13.5
		V385h80.3V438.3z M196.1,363.9h122.6v8.3H196.1V363.9z"/>
	<path d="M120.8,459v12.7h55.1V459h-14.2v-29.7c11.7-2.2,20.6-12.6,20.6-24.9c0-6.6-2.5-18.4-5.9-28.1c-5.3-15-11.7-22.3-19.4-22.3
		c-7.7,0-14.1,7.3-19.4,22.3c-3.4,9.7-5.9,21.5-5.9,28.1c0,4.9,1.4,9.4,3.7,13.2h-8.1v-63.8h-63v63.8h-18V258.7h77.3V246h-90v171.6
		H9.5v12.7h54.7h22.5h40.5h21.7V459H120.8z M114.4,417.5H102v-35.6H89.3v35.6H76.9v-51h37.5V417.5z M144.3,404.3
		c0-4,1.7-13.4,4.6-22c3.5-10.4,6.7-14.5,8-15.5c1.3,1,4.6,5.1,8,15.5c2.9,8.7,4.6,18,4.6,22c0,7-5.7,12.6-12.6,12.6
		S144.3,411.3,144.3,404.3z"/>
	<path d="M481.2,417.5V246H373.9l-0.3-145H141.2l-0.5,234.6h12.7l0.5-221.9h206.9l0.5,221.9h6.4h6.4v-76.9h94.4v158.8H455v-63.8h-63
		v63.8h-8.6c2.4-3.9,3.7-8.4,3.7-13.2c0-6.6-2.5-18.4-5.9-28.1c-5.3-15-11.7-22.3-19.4-22.3c-7.8,0-14.1,7.3-19.4,22.3
		c-3.4,9.7-5.9,21.5-5.9,28.1c0,11.8,8.1,21.7,19,24.6v30h-13.6v12.7H397v-12.7h-28.7v-28.5H392h63h26.3h21.3v-12.7L481.2,417.5z
		 M361.7,416.9c-7,0-12.6-5.7-12.6-12.6c0-4,1.7-13.4,4.6-22c3.5-10.4,6.7-14.5,8-15.5c1.3,1,4.6,5.1,8,15.5c2.9,8.7,4.6,18,4.6,22
		C374.3,411.3,368.7,416.9,361.7,416.9z M442.3,417.5L442.3,417.5h-1.7h-10.7v-35.6h-12.7v35.6h-12.4v-51h37.5V417.5z"/>
</g>
</svg>
