<?xml version="1.0" encoding="utf-8"?>
<!-- Generator: Adobe Illustrator 21.1.0, SVG Export Plug-In . SVG Version: 6.00 Build 0)  -->
<svg version="1.1" id="Layer_1" xmlns="http://www.w3.org/2000/svg" xmlns:xlink="http://www.w3.org/1999/xlink" x="0px" y="0px"
	 viewBox="0 0 24 24" style="enable-background:new 0 0 24 24;" xml:space="preserve">
<path d="M13.2,0.7h-2.3C5.2,0.7,0.6,5.3,0.6,10.9v2.3c0,5.6,4.6,10.2,10.2,10.2h2.3c5.6,0,10.2-4.6,10.2-10.2v-2.3
	C23.4,5.3,18.8,0.7,13.2,0.7z M8.8,17.8H6.7v-8h2.2V17.8z M7.8,8.9c-0.7,0-1.3-0.6-1.3-1.3s0.6-1.3,1.3-1.3C8.5,6.3,9,6.9,9,7.6
	S8.5,8.9,7.8,8.9z M17.6,17.8h-2.2v-4.1c0-2.4-2.9-2.3-2.9,0v4.1h-2.2v-8h2.2v1.3c1-1.9,5.1-2,5.1,1.8V17.8z"/>
</svg>
