<?xml version="1.0" encoding="utf-8"?>
<!-- Generator: Adobe Illustrator 21.1.0, SVG Export Plug-In . SVG Version: 6.00 Build 0)  -->
<svg version="1.1" id="Layer_1" xmlns="http://www.w3.org/2000/svg" xmlns:xlink="http://www.w3.org/1999/xlink" x="0px" y="0px"
	 viewBox="0 0 512 512" style="enable-background:new 0 0 512 512;" xml:space="preserve">
<g>
	<path d="M257.2,204.2c-28.1,0-50.9,23.1-50.9,51.8s22.8,51.8,50.9,51.8s50.9-23.1,50.9-51.8C308.1,227.3,285.3,204.2,257.2,204.2z"
		/>
	<path d="M269.4,0.3C128.8-6.8,3.9,106,0,249.5v13.8C3.6,395.7,110.2,502,237.1,512h39C403.7,501.9,508.5,394.7,512,263.1v-13.6
		C508.5,115.6,400.1,7,269.4,0.3z M408.9,320.1c-0.7,16.5-3.3,27.9-7.1,37.7c-3.9,10.3-9.1,18.9-17.6,27.6c-8.4,8.7-16.9,14-27,18
		c-9.7,3.8-20.9,6.4-37.1,7.2c-16.2,0.8-21.5,1-62.9,1c-41.4,0-46.6-0.2-62.9-1c-16.2-0.7-27.4-3.3-37.1-7.2c-10-4-18.5-9.3-27-18
		s-13.7-17.4-17.6-27.6c-3.7-9.9-6.3-21.2-7.1-37.7c-0.7-16.5-0.9-21.8-0.9-64c0-42.2,0.1-47.5,0.9-64c0.7-16.5,3.3-27.9,7.1-37.7
		c3.9-10.3,9.1-18.9,17.6-27.6c8.4-8.7,16.9-14,27-18c9.7-3.8,20.9-6.4,37.1-7.2c16.2-0.8,21.4-1,62.9-1c41.4,0,46.7,0.2,62.9,1
		c16.2,0.7,27.4,3.3,37.1,7.2c10,4,18.5,9.3,27,18c8.5,8.7,13.7,17.4,17.6,27.6c3.7,9.9,6.3,21.2,7.1,37.7c0.7,16.5,0.9,21.8,0.9,64
		C409.8,298.3,409.7,303.6,408.9,320.1z"/>
	<path d="M376.3,164.2c-2.8-7.2-6.2-12.4-11.5-17.8c-5.3-5.4-10.4-8.8-17.5-11.6c-5.4-2.1-13.4-4.7-28.3-5.3
		c-16.2-0.8-21-0.9-61.8-0.9s-45.7,0.2-61.8,0.9c-14.8,0.6-22.9,3.1-28.3,5.3c-7.1,2.8-12.2,6.2-17.5,11.6
		c-5.4,5.4-8.7,10.6-11.5,17.8c-2.2,5.5-4.7,13.8-5.3,28.9c-0.8,16.4-0.9,21.3-0.9,62.8s0.1,46.4,0.9,62.8
		c0.8,15.2,3.2,23.4,5.3,28.9c2.8,7.2,6.2,12.4,11.5,17.8c5.3,5.4,10.4,8.8,17.5,11.6c5.4,2.1,13.4,4.7,28.3,5.3
		c16.2,0.8,21,0.9,61.8,0.9s45.7-0.1,61.8-0.9c14.8-0.6,22.9-3.1,28.3-5.3c7.1-2.8,12.2-6.2,17.5-11.6c5.4-5.4,8.7-10.6,11.5-17.8
		c2.2-5.5,4.7-13.8,5.3-28.9c0.8-16.4,0.9-21.3,0.9-62.8s-0.1-46.4-0.9-62.8C380.8,177.9,378.4,169.7,376.3,164.2z M257.2,335.8
		c-43.3,0-78.4-35.7-78.4-79.8c0-44.1,35-79.8,78.4-79.8c43.3,0,78.4,35.7,78.4,79.8C335.6,300.1,300.5,335.8,257.2,335.8z
		 M338.7,191.6c-10.1,0-18.3-8.3-18.3-18.6s8.2-18.6,18.3-18.6S357,162.7,357,173S348.8,191.6,338.7,191.6z"/>
</g>
</svg>
