<?xml version="1.0" encoding="utf-8"?>
<!-- Generator: Adobe Illustrator 21.1.0, SVG Export Plug-In . SVG Version: 6.00 Build 0)  -->
<svg version="1.1" id="Layer_1" xmlns="http://www.w3.org/2000/svg" xmlns:xlink="http://www.w3.org/1999/xlink" x="0px" y="0px"
	 viewBox="0 0 100 125" style="enable-background:new 0 0 100 125;" xml:space="preserve">
<g>
	<path d="M23.3,52.7c2,0,4-0.3,6-1l3.7,3.7c0.3,0.3,0.7,0.4,1.1,0.4c0.4,0,0.8-0.1,1.1-0.4c0.6-0.6,0.6-1.5,0-2.1l-4.3-4.3
		c-0.4-0.4-1.1-0.6-1.6-0.4c-5.7,2.3-12.3,1-16.6-3.4c-3.5-3.5-5-8.3-4.3-13.1l5.2,5.2c1.3,1.3,3,1.9,4.7,1.9c1.7,0,3.4-0.6,4.7-1.9
		l3.6-3.6c1.2-1.2,1.9-2.9,1.9-4.7c0-1.8-0.7-3.4-1.9-4.7l-5.2-5.2c4.8-0.7,9.6,0.8,13.1,4.3c4.3,4.3,5.6,10.7,3.5,16.4l-1.6,1.6
		c-0.6,0.6-0.6,1.5,0,2.1c0.3,0.3,0.7,0.4,1.1,0.4c0.4,0,0.8-0.1,1.1-0.4l0.7-0.7c1.4,1.4,4.2,4.2,9.4,9.4c0.3,0.3,0.7,0.4,1.1,0.4
		c0.4,0,0.8-0.1,1.1-0.4c0.6-0.6,0.6-1.5,0-2.1c-5.7-5.7-8.6-8.6-9.8-9.8c2.3-6.6,0.6-13.9-4.4-18.9c-4.9-4.9-12.1-6.6-18.7-4.5
		c0,0,0,0-0.1,0c0,0,0,0-0.1,0c-0.2,0.1-0.3,0.2-0.4,0.3c0,0,0,0,0,0c0,0,0,0,0,0c-0.1,0.1-0.2,0.3-0.3,0.4c0,0,0,0,0,0.1
		c-0.1,0.2-0.1,0.3-0.1,0.5c0,0,0,0,0,0.1c0,0.1,0,0.3,0.1,0.4c0,0,0,0,0,0.1c0,0,0,0,0,0.1c0.1,0.2,0.2,0.3,0.3,0.4c0,0,0,0,0,0
		l7.1,7.1c0.7,0.7,1.1,1.6,1.1,2.5c0,1-0.4,1.9-1,2.5l-3.6,3.6c-1.4,1.4-3.7,1.4-5.1,0L8.4,28c0,0,0,0,0,0c-0.1-0.1-0.3-0.2-0.4-0.3
		c0,0,0,0-0.1,0c0,0,0,0-0.1,0c-0.1,0-0.3-0.1-0.4-0.1c0,0,0,0-0.1,0c-0.2,0-0.3,0-0.5,0.1c0,0,0,0-0.1,0c-0.2,0.1-0.3,0.2-0.4,0.3
		c0,0,0,0,0,0c0,0,0,0,0,0c-0.1,0.1-0.2,0.3-0.3,0.4c0,0,0,0,0,0.1c0,0,0,0,0,0.1c-2.2,6.6-0.4,13.7,4.5,18.7
		C13.9,50.8,18.6,52.7,23.3,52.7z"/>
	<path d="M57.6,75.7c-0.6-0.6-1.5-0.6-2.1,0c-0.6,0.6-0.6,1.5,0,2.1l1.9,1.9c0.3,0.3,0.7,0.4,1.1,0.4c0.4,0,0.8-0.1,1.1-0.4
		c0.6-0.6,0.6-1.5,0-2.1L57.6,75.7z"/>
	<path d="M92.6,92.3l-1.8-1.8C83.4,83,72.7,72.3,61.5,61.1c-0.6-0.6-1.5-0.6-2.1,0c-0.6,0.6-0.6,1.5,0,2.1
		c11.2,11.2,21.9,21.9,29.3,29.3l1.8,1.8c0.9,0.9,1.5,2.2,1.5,3.6c0,1.3-0.5,2.6-1.5,3.6c-2,2-5.2,2-7.1,0L63.7,81.9
		c-0.6-0.6-1.5-0.6-2.1,0c-0.6,0.6-0.6,1.5,0,2.1l19.7,19.7c1.6,1.6,3.6,2.3,5.7,2.3c2.1,0,4.1-0.8,5.7-2.3c1.5-1.5,2.3-3.5,2.3-5.7
		C95,95.8,94.1,93.8,92.6,92.3z"/>
	<circle cx="86.9" cy="98" r="2.4"/>
	<path d="M54.7,71.8l-4.6-4.6l31.1-31.2l4.8,0.3c0,0,0.1,0,0.1,0c0.5,0,1-0.3,1.3-0.8l7.3-13.2c0.3-0.6,0.2-1.3-0.3-1.8l-4.2-4.2
		c-0.5-0.5-1.2-0.6-1.8-0.3l-13.2,7.3c-0.5,0.3-0.8,0.8-0.8,1.4l0.3,4.8L43.8,60.9l-4.5-4.5c-0.6-0.6-1.5-0.6-2.1,0l-3.9,3.9
		c-0.3,0.3-0.4,0.7-0.4,1.1c0,0.4,0.2,0.8,0.4,1.1c0.3,0.3,0.5,0.7,0.5,1c0,0.2,0,0.5-0.3,0.8l-0.1,0.1c-0.2,0.2-0.5,0.3-0.7,0.3
		c-0.4,0-0.8-0.2-1.1-0.5c-0.6-0.6-1.6-0.6-2.1,0L7.1,86.4c-1.4,1.4-2.1,3.3-2,5.4c0.1,2,1,4,2.5,5.4l6.3,6.3
		c1.6,1.6,3.7,2.5,5.9,2.5c1.9,0,3.7-0.7,5-2l22.3-22.3c0.3-0.3,0.4-0.7,0.4-1.1c0-0.4-0.2-0.8-0.4-1.1c-0.3-0.3-0.5-0.7-0.5-1
		c0-0.2,0-0.5,0.3-0.8l0.1-0.1c0.2-0.2,0.5-0.3,0.7-0.3c0.4,0,0.8,0.2,1.1,0.5c0.6,0.6,1.5,0.6,2.1,0l3.9-3.9
		C55.3,73.3,55.3,72.4,54.7,71.8z M77.5,31.4C77.5,31.4,77.5,31.3,77.5,31.4c0.1-0.2,0.2-0.3,0.3-0.5c0,0,0-0.1,0-0.1
		c0.1-0.2,0.1-0.3,0.1-0.5c0,0,0-0.1,0-0.1c0,0,0,0,0-0.1l-0.3-4.5L89,19.4l2.6,2.6l-6.3,11.4L80.8,33c0,0,0,0-0.1,0
		c0,0-0.1,0-0.1,0c-0.2,0-0.3,0-0.5,0.1c0,0-0.1,0-0.1,0c-0.2,0.1-0.3,0.2-0.4,0.3c0,0,0,0,0,0L48,65.1L45.9,63L77.5,31.4z
		 M49.6,74.8C48,74,46,74.2,44.7,75.5l-0.1,0.1c-0.8,0.8-1.2,1.9-1.2,3.1c0,0.6,0.2,1.2,0.5,1.8l-21.4,21.4
		c-0.7,0.7-1.8,1.1-2.9,1.1c-1.3,0-2.7-0.6-3.7-1.6l-6.3-6.3c-1-1-1.5-2.2-1.6-3.5c-0.1-1.2,0.3-2.3,1.1-3.1l21.4-21.4
		c1.6,0.8,3.6,0.5,4.8-0.7l0.1-0.1c0.8-0.8,1.2-1.9,1.2-3.1c0-0.6-0.2-1.2-0.5-1.8l1.9-1.9l4.5,4.5c0,0,0,0,0,0c0,0,0,0,0,0l4.2,4.2
		c0,0,0,0,0,0c0,0,0,0,0,0l4.5,4.5L49.6,74.8z"/>
</g>
</svg>
