<?xml version="1.0" encoding="utf-8"?>
<!-- Generator: Adobe Illustrator 21.1.0, SVG Export Plug-In . SVG Version: 6.00 Build 0)  -->
<svg version="1.1" id="Layer_1" xmlns="http://www.w3.org/2000/svg" xmlns:xlink="http://www.w3.org/1999/xlink" x="0px" y="0px"
	 viewBox="0 0 24 24" style="enable-background:new 0 0 24 24;" xml:space="preserve">
<path d="M13.2,0.6h-2.4C5.1,0.6,0.4,5.3,0.4,11v2.4c0,5.7,4.7,10.4,10.4,10.4h2.4c5.7,0,10.4-4.7,10.4-10.4V11
	C23.5,5.3,18.9,0.6,13.2,0.6z M8.7,18H6.5V9.9h2.2V18z M7.6,9C6.9,9,6.3,8.4,6.3,7.7s0.6-1.3,1.3-1.3c0.7,0,1.3,0.6,1.3,1.3
	S8.4,9,7.6,9z M17.6,18h-2.2v-4.1c0-2.5-3-2.3-3,0V18h-2.2V9.9h2.2v1.3c1-1.9,5.2-2,5.2,1.8V18z"/>
</svg>
