<?xml version="1.0" encoding="utf-8"?>
<!-- Generator: Adobe Illustrator 21.1.0, SVG Export Plug-In . SVG Version: 6.00 Build 0)  -->
<svg version="1.1"
	 id="Layer_1" xmlns:cc="http://creativecommons.org/ns#" xmlns:dc="http://purl.org/dc/elements/1.1/" xmlns:inkscape="http://www.inkscape.org/namespaces/inkscape" xmlns:rdf="http://www.w3.org/1999/02/22-rdf-syntax-ns#" xmlns:sodipodi="http://sodipodi.sourceforge.net/DTD/sodipodi-0.dtd" xmlns:svg="http://www.w3.org/2000/svg"
	 xmlns="http://www.w3.org/2000/svg" xmlns:xlink="http://www.w3.org/1999/xlink" x="0px" y="0px" viewBox="0 0 100 125"
	 style="enable-background:new 0 0 100 125;" xml:space="preserve">
<g>
	<path d="M51.7,101.1C51.7,101.1,51.7,101.1,51.7,101.1c-6.7,0.7-13.3-0.3-19.6-3.5c-0.5-0.3-1.2-0.1-1.5,0.4l-3.6,6.2l-2.5-1.5
		l3.6-6.2c0.3-0.5,0.1-1.2-0.3-1.5C20.9,90.5,16,83.8,13.5,76.4c-0.2-0.6-0.8-0.9-1.3-0.7l-6.9,1.8l-0.8-2.8l6.9-1.8
		c0.6-0.2,0.9-0.7,0.8-1.3c-1.5-7.7-0.6-15.9,3.1-23.3c0.3-0.5,0.1-1.2-0.4-1.5l-6.2-3.6l1.5-2.5l6.2,3.6c0.5,0.3,1.2,0.1,1.5-0.3
		C22.4,37,29,32.1,36.4,29.6c0.6-0.2,0.9-0.8,0.7-1.3l-1.8-6.9l2.8-0.8l1.8,6.9c0.2,0.6,0.7,0.9,1.3,0.8c7.7-1.5,15.9-0.6,23.3,3.1
		c0.5,0.3,1.2,0.1,1.5-0.4l3.6-6.2l2.5,1.5l-3.6,6.2c-0.3,0.5-0.1,1.2,0.3,1.5c5.9,3.9,10,9.2,12.8,15.2c0.3,0.6,0.9,0.8,1.5,0.6
		c0.6-0.3,0.8-0.9,0.6-1.5c0,0,0,0,0,0c-2.8-6.1-6.9-11.5-12.7-15.6l3.6-6.2c0.3-0.5,0.1-1.2-0.4-1.5l-4.5-2.6
		c-0.5-0.3-1.2-0.1-1.5,0.4l-3.6,6.2c-7.3-3.4-15.3-4.3-22.8-3L40,19c-0.1-0.5-0.6-0.8-1.1-0.8v0c-0.1,0-0.2,0-0.3,0l-5,1.3
		c-0.6,0.2-0.9,0.8-0.8,1.4l1.9,7c-7.1,2.7-13.6,7.4-18.2,14l-6.2-3.6c-0.5-0.3-1.2-0.1-1.5,0.4l-2.6,4.5c-0.3,0.5-0.1,1.2,0.4,1.5
		c0,0,0,0,0,0l6.2,3.6c-3.4,7.3-4.3,15.3-3,22.8l-7,1.9C2.2,73,1.9,73.6,2,74.2c0,0,0,0,0,0l1.3,5c0.2,0.6,0.8,0.9,1.4,0.8l7-1.9
		c2.7,7.1,7.4,13.6,14,18.2l-3.6,6.2c-0.3,0.5-0.1,1.2,0.4,1.5l4.5,2.6c0.5,0.3,1.2,0.1,1.5-0.4c0,0,0,0,0,0l3.6-6.2
		c6.4,2.9,13.2,3.9,19.8,3.2c0.6-0.1,1.1-0.6,1-1.2C52.9,101.4,52.3,101,51.7,101.1z"/>
	<path d="M45.8,41C45.8,41,45.8,41,45.8,41c12.9-1.5,24.6,7.7,26.2,20.6c0.1,0.6,0.6,1.1,1.2,1c0.6-0.1,1.1-0.6,1-1.2c0,0,0,0,0,0
		c-1.6-13-12.6-22.6-25.4-22.7v0c-1.1,0-2.2,0.1-3.3,0.2v0C31.4,40.5,21.3,53.3,23,67.5c0,0,0,0,0,0C24.7,81.6,37.5,91.7,51.7,90
		c0.6-0.1,1.1-0.6,1-1.2c-0.1-0.6-0.6-1.1-1.2-1c0,0,0,0,0,0c-12.9,1.5-24.6-7.7-26.2-20.6c0,0,0,0,0,0C23.7,54.3,32.9,42.6,45.8,41
		z"/>
	<path d="M96.9,85.9h-2.1c-0.4-2.7-1.4-5.1-3-7.2l1.5-1.5c0.4-0.4,0.4-1.1,0-1.6L92,74.3c-0.4-0.4-1.1-0.5-1.6,0c0,0,0,0,0,0
		l-1.4,1.5c-2-1.6-4.5-2.6-7.2-3v-2.1c0-0.6-0.5-1.1-1.1-1.1h-1.9c0,0-0.1,0-0.1,0v0c-0.6,0.1-1,0.6-1,1.1v2.1
		c-2.7,0.4-5.1,1.4-7.2,3l-1.5-1.5c-0.4-0.4-1.1-0.4-1.6,0L66,75.7c-0.4,0.4-0.4,1.1,0,1.6l1.5,1.5c-1.6,2-2.6,4.5-3,7.2h-2.1
		c-0.6,0-1.1,0.5-1.1,1.1v1.9c0,0.6,0.5,1.1,1.1,1.1h2.1c0.4,2.7,1.4,5.1,3,7.2L66,98.7c-0.4,0.4-0.4,1.1,0,1.6l1.4,1.4
		c0.4,0.4,1.1,0.4,1.6,0l1.5-1.5c2,1.6,4.5,2.6,7.2,3v2.1c0,0.6,0.5,1.1,1.1,1.1h1.9c0.6,0,1.1-0.5,1.1-1.1v-2.1
		c2.7-0.4,5.1-1.4,7.2-3l1.5,1.5c0.4,0.4,1.1,0.5,1.6,0c0,0,0,0,0,0l1.4-1.4c0.4-0.4,0.4-1.1,0-1.6l-1.5-1.5c1.6-2,2.6-4.5,3-7.2
		h2.1c0.6,0,1.1-0.5,1.1-1.1V87C98,86.4,97.5,85.9,96.9,85.9z M92.7,88.9c-0.2,2.9-1.4,5.6-3.2,7.7c-0.2,0.3-0.3,0.7-0.2,1
		c-0.4-0.1-0.7,0-1,0.2c-2.1,1.8-4.8,3-7.7,3.2c-0.4,0-0.7,0.2-0.9,0.6c-0.2-0.3-0.5-0.5-0.9-0.6c-3-0.2-5.6-1.4-7.7-3.2
		c-0.3-0.2-0.7-0.3-1-0.2c0.1-0.4,0-0.7-0.2-1c-1.8-2.1-3-4.8-3.2-7.7c0-0.4-0.2-0.7-0.6-0.9c0.3-0.2,0.5-0.5,0.6-0.9
		c0.2-3,1.4-5.6,3.2-7.7c0.2-0.3,0.3-0.7,0.2-1c0.4,0.1,0.7,0,1-0.2c2.1-1.8,4.8-3,7.7-3.2c0.4,0,0.7-0.2,0.9-0.5v0
		c0.2,0.3,0.5,0.5,0.9,0.5c2.9,0.2,5.6,1.4,7.7,3.2c0.3,0.2,0.7,0.3,1,0.2c-0.1,0.4,0,0.7,0.2,1c1.8,2.1,3,4.8,3.2,7.7
		c0,0.4,0.2,0.7,0.6,0.9C92.9,88.2,92.7,88.5,92.7,88.9z"/>
	<path d="M79.6,80.6L79.6,80.6c-4,0-7.3,3.3-7.3,7.4c0,4,3.3,7.3,7.3,7.3S87,92,87,88C87,84,83.7,80.6,79.6,80.6z M79.6,93.1
		c-2.8,0-5.1-2.3-5.1-5.1c0-2.8,2.3-5.1,5.1-5.1v0c2.8,0,5.1,2.3,5.1,5.1C84.7,90.8,82.5,93.1,79.6,93.1z"/>
</g>
</svg>
