<?xml version="1.0" encoding="utf-8"?>
<!-- Generator: Adobe Illustrator 21.1.0, SVG Export Plug-In . SVG Version: 6.00 Build 0)  -->
<svg version="1.1" id="Layer_1" xmlns="http://www.w3.org/2000/svg" xmlns:xlink="http://www.w3.org/1999/xlink" x="0px" y="0px"
	 viewBox="0 0 50 62.5" style="enable-background:new 0 0 50 62.5;" xml:space="preserve">
<path d="M49.2,27.1H0.8c-0.3,0-0.5,0.2-0.5,0.5v15c0,0.3,0.2,0.5,0.5,0.5h48.4c0.3,0,0.5-0.2,0.5-0.5v-15
	C49.7,27.3,49.5,27.1,49.2,27.1z M48.7,42.1H1.3v-14H2v4.8c0,0.3,0.2,0.5,0.5,0.5S3,33.2,3,32.9v-4.8h2.8v3c0,0.3,0.2,0.5,0.5,0.5
	s0.5-0.2,0.5-0.5v-3h2.8v3c0,0.3,0.2,0.5,0.5,0.5s0.5-0.2,0.5-0.5v-3h2.8v3c0,0.3,0.2,0.5,0.5,0.5s0.5-0.2,0.5-0.5v-3H17v4.8
	c0,0.3,0.2,0.5,0.5,0.5s0.5-0.2,0.5-0.5v-4.8h2.8v3c0,0.3,0.2,0.5,0.5,0.5s0.5-0.2,0.5-0.5v-3h2.8v3c0,0.3,0.2,0.5,0.5,0.5
	s0.5-0.2,0.5-0.5v-3h2.8v3c0,0.3,0.2,0.5,0.5,0.5s0.5-0.2,0.5-0.5v-3H32v4.8c0,0.3,0.2,0.5,0.5,0.5s0.5-0.2,0.5-0.5v-4.8h2.8v3
	c0,0.3,0.2,0.5,0.5,0.5s0.5-0.2,0.5-0.5v-3h2.8v3c0,0.3,0.2,0.5,0.5,0.5s0.5-0.2,0.5-0.5v-3h2.8v3c0,0.3,0.2,0.5,0.5,0.5
	s0.5-0.2,0.5-0.5v-3H47v4.8c0,0.3,0.2,0.5,0.5,0.5s0.5-0.2,0.5-0.5v-4.8h0.7V42.1L48.7,42.1z"/>
<path d="M49.2,18.9c-0.3,0-0.5,0.2-0.5,0.5v1.5H1.3v-1.5c0-0.3-0.2-0.5-0.5-0.5s-0.5,0.2-0.5,0.5v3.9c0,0.3,0.2,0.5,0.5,0.5
	s0.5-0.2,0.5-0.5v-1.5h47.4v1.5c0,0.3,0.2,0.5,0.5,0.5s0.5-0.2,0.5-0.5v-3.9C49.7,19.1,49.5,18.9,49.2,18.9z"/>
</svg>
