<?xml version="1.0" encoding="utf-8"?>
<!-- Generator: Adobe Illustrator 21.1.0, SVG Export Plug-In . SVG Version: 6.00 Build 0)  -->
<svg version="1.1" id="Layer_1" xmlns="http://www.w3.org/2000/svg" xmlns:xlink="http://www.w3.org/1999/xlink" x="0px" y="0px"
	 viewBox="0 0 100 125" style="enable-background:new 0 0 100 125;" xml:space="preserve">
<g>
	<path d="M93.7,26.3H7.3c-1.4,0-2.3,0.9-2.3,2.3c0,1.4,0.9,2.3,2.3,2.3h86.5c1.1,0,2.3-0.9,2.3-2.3C96,27.2,95.1,26.3,93.7,26.3z"/>
	<path d="M7.3,52.2h43.1c1.4,0,2.3-0.9,2.3-2.3c0-1.4-0.9-2.3-2.3-2.3H7.3c-1.4,0-2.3,0.9-2.3,2.3C5,51.3,5.9,52.2,7.3,52.2z"/>
	<path d="M85.1,68.7H7.3C5.9,68.7,5,69.6,5,71c0,1.4,0.9,2.3,2.3,2.3h77.8c1.4,0,2.3-0.9,2.3-2.3C87.4,69.6,86.5,68.7,85.1,68.7z"/>
	<path d="M70.8,90.1H7.3C5.9,90.1,5,91,5,92.3c0,1.4,0.9,2.3,2.3,2.3h63.5c1.1,0,2.3-0.9,2.3-2.3C73.1,91,72.2,90.1,70.8,90.1z"/>
</g>
</svg>
