<?xml version="1.0" encoding="utf-8"?>
<!-- Generator: Adobe Illustrator 21.1.0, SVG Export Plug-In . SVG Version: 6.00 Build 0)  -->
<svg version="1.1" id="Layer_1" xmlns="http://www.w3.org/2000/svg" xmlns:xlink="http://www.w3.org/1999/xlink" x="0px" y="0px"
	 viewBox="0 0 100 125" style="enable-background:new 0 0 100 125;" xml:space="preserve">
<title>Artboard 5</title>
<path d="M90,23H10c-0.6,0-1,0.4-1,1v80c0,0.6,0.4,1,1,1h80c0.6,0,1-0.4,1-1V24C91,23.5,90.6,23,90,23z M11,25h36.4l8.1,7.2
	c-0.9,1.7-0.4,3.8,1.1,5L53,45.5c-4-1.3-8.4,0.1-10.9,3.5l-11.6-7.2c1.5-3.5-0.1-7.7-3.6-9.2c-3.5-1.5-7.7,0.1-9.2,3.6
	c-1,2.3-0.7,5,0.8,7L11,50.5V25z M41,72.3c-3.7-1.1-7.6,1-8.7,4.7c-0.5,1.7-0.3,3.5,0.4,5.1L25.6,87c-0.3-0.2-0.5-0.4-0.8-0.6
	L29.2,65c2.1-0.1,3.8-1.9,3.8-4c0,0,0-0.1,0-0.1l7.7-2.2c0.8,2.1,2.3,3.8,4.2,4.9L41,72.3z M44,79c0,2.8-2.2,5-5,5c-2.8,0-5-2.2-5-5
	c0-2.8,2.2-5,5-5S44,76.2,44,79z M25,90c0,1.1-0.9,2-2,2c-1.1,0-2-0.9-2-2c0-1.1,0.9-2,2-2S25,88.9,25,90z M27,61c0-1.1,0.9-2,2-2
	s2,0.9,2,2c0,1.1-0.9,2-2,2C27.9,63,27,62.1,27,61z M42,55c0-4.4,3.6-8,8-8c4.4,0,8,3.6,8,8c0,4.4-3.6,8-8,8S42,59.4,42,55z M29,39
	c0,2.8-2.2,5-5,5c-2.8,0-5-2.2-5-5c0-2.8,2.2-5,5-5S29,36.2,29,39z M11,53.3l8.8-8.7c3,2.3,7.2,1.8,9.6-1.1L41,50.7
	c-0.9,1.9-1.2,4-0.8,6.1L32.4,59c-1.1-1.9-3.6-2.5-5.5-1.4s-2.5,3.6-1.4,5.5c0.4,0.7,1,1.2,1.7,1.6L22.8,86c-2.1,0.1-3.8,1.9-3.8,4
	c0,0,0,0.1,0,0.1l-8,2.3V53.3z M89,103H11v-8.5l8.6-2.5c1.1,1.9,3.5,2.6,5.4,1.5c1.7-1,2.4-3,1.7-4.8l7.1-4.9
	c2.1,2.3,5.5,2.9,8.2,1.5l4.9,7.1c-1.5,1.7-1.3,4.3,0.4,5.7s4.3,1.3,5.7-0.4c1.5-1.7,1.3-4.3-0.4-5.7c-1.1-1-2.7-1.3-4.1-0.7
	l-4.9-7.1c0.7-0.7,1.3-1.5,1.7-2.4l17.7,4.7c-0.9,5.4,2.8,10.6,8.3,11.5c5.4,0.9,10.6-2.8,11.5-8.3c0.3-1.7,0.1-3.4-0.5-5l6.6-3.1
	V103z M48,95c0-1.1,0.9-2,2-2c1.1,0,2,0.9,2,2c0,1.1-0.9,2-2,2S48,96.1,48,95z M65,88c0-4.4,3.6-8,8-8c4.4,0,8,3.6,8,8
	c0,4.4-3.6,8-8,8S65,92.4,65,88z M89,79.4l-7.4,3.5c-2.8-4.7-8.9-6.3-13.7-3.5c-1.9,1.2-3.4,3-4.2,5.1L46,79.8
	c0.3-2.6-0.9-5.2-3.2-6.7l4-8.7c4.2,1.4,8.8,0,11.4-3.7l9,5.2c-0.1,0.3-0.2,0.7-0.2,1c0,2.2,1.8,4,4,4s4-1.8,4-4c0-2.2-1.8-4-4-4
	c-1.1,0-2.1,0.4-2.9,1.2l-9-5.1c0.9-2,1.1-4.2,0.6-6.3l11-3.7c1.8,3.5,6,4.9,9.5,3.2s4.9-6,3.2-9.5s-6-4.9-9.5-3.2
	c-2.8,1.4-4.4,4.5-3.8,7.6l-11,3.7c-0.9-2-2.4-3.6-4.3-4.7l3.6-8.3c0.2,0,0.4,0.1,0.6,0.1c2.2,0,4-1.8,4-4c0-2.2-1.8-4-4-4
	c-0.8,0-1.6,0.2-2.2,0.7L50.4,25H89V79.4z M69,67c0-1.1,0.9-2,2-2c1.1,0,2,0.9,2,2c0,1.1-0.9,2-2,2S69,68.1,69,67z M72,46
	c0-2.8,2.2-5,5-5s5,2.2,5,5c0,2.8-2.2,5-5,5C74.2,51,72,48.8,72,46z M57,34c0-1.1,0.9-2,2-2s2,0.9,2,2c0,1.1-0.9,2-2,2
	C57.9,36,57,35.1,57,34z"/>
</svg>
