<?xml version="1.0" encoding="utf-8"?>
<!-- Generator: Adobe Illustrator 21.1.0, SVG Export Plug-In . SVG Version: 6.00 Build 0)  -->
<svg version="1.1" id="Layer_1" xmlns="http://www.w3.org/2000/svg" xmlns:xlink="http://www.w3.org/1999/xlink" x="0px" y="0px"
	 viewBox="0 0 2000 2000" style="enable-background:new 0 0 2000 2000;" xml:space="preserve">
<g>
	<path d="M1042,274.1c0-22.2-19-41.2-42.8-41.2c-22.2,0-41.2,19-41.2,41.2c0,23.8,19,41.2,41.2,41.2
		C1023,315.3,1042,297.8,1042,274.1z M999.2,274.1h1.6c0,1.6-1.6,1.6-1.6,1.6S999.2,275.7,999.2,274.1z"/>
	<path d="M880.3,347c-19,0-28.5,23.8-14.3,36.5l118.9,110.9c8,7.9,20.6,7.9,28.5,0l118.9-111c15.9-12.7,6.4-36.5-12.7-38
		c-6.3,0-11.1,3.2-15.8,6.3l-82.4,79.2v-42.8c0-11.1-9.5-20.6-22.2-20.6c-11.1,0-20.6,9.5-20.6,20.6V431l-82.4-79.2
		C891.4,348.6,885.1,345.4,880.3,347z"/>
	<path d="M894.6,198l84-79.2v41.2c0,28.5,42.8,28.5,42.8,0v-41.2l82.4,79.2c20.6,19,50.7-12.7,28.5-31.7l-118.9-111
		c-3.2-4.8-9.5-6.3-14.3-6.3s-9.5,1.6-14.3,6.3l-118.9,111C845.5,185.3,875.6,217,894.6,198z"/>
	<path d="M1005.5,549.9h-11.1c-253.6,0-459.7,204.5-459.7,459.7v481.8c0,253.6,206.1,459.7,459.7,459.7h11.1
		c253.6,0,459.7-206.1,459.7-459.7v-481.8C1465.2,754.3,1259.1,549.9,1005.5,549.9z M999.2,729h1.6c33.3,0,60.2,26.9,60.2,60.2
		v142.7c0,33.3-27,60.2-60.2,60.2h-1.6c-33.3,0-60.2-26.9-60.2-60.2V789.2C939,755.9,965.9,729,999.2,729z M1422.4,1491.3
		c0,231.4-185.4,416.9-416.9,416.9h-11.1c-231.4,0-416.9-185.4-416.9-416.9v-481.8c0-226.7,177.5-408.9,401-416.9v96.7
		c-46,9.5-82.4,50.7-82.4,99.9v142.7c0,49.1,36.5,90.3,82.4,99.9v112.5c0,28.5,42.8,28.5,42.8,0v-112.5
		c45.9-9.5,80.8-50.7,80.8-99.9V789.2c0-49.1-34.9-90.3-80.8-99.9v-96.7c223.5,7.9,401,190.2,401,416.9V1491.3z"/>
</g>
</svg>
