<?xml version="1.0" encoding="utf-8"?>
<!-- Generator: Adobe Illustrator 21.1.0, SVG Export Plug-In . SVG Version: 6.00 Build 0)  -->
<svg version="1.1" id="Layer_1" xmlns="http://www.w3.org/2000/svg" xmlns:xlink="http://www.w3.org/1999/xlink" x="0px" y="0px"
	 viewBox="0 0 100 125" style="enable-background:new 0 0 100 125;" xml:space="preserve">
<title>03</title>
<path d="M80.9,51.7l17.2-11.3L50,9L1.9,40.5l17.2,11.3L1.9,63l17.2,11.3L1.9,85.6L50,117l48.1-31.5L80.9,74.3L98.1,63L80.9,51.7z
	 M11.1,40.5L50,15l38.9,25.5L50,66L11.1,40.5z M89,85.6L50,111L11.1,85.5l12.5-8.2L50,94.5l26.4-17.2L89,85.6z M50,88.5L11.1,63
	l12.6-8.3L50,72l26.4-17.2L88.9,63L50,88.5z"/>
</svg>
