<?xml version="1.0" encoding="utf-8"?>
<!-- Generator: Adobe Illustrator 21.1.0, SVG Export Plug-In . SVG Version: 6.00 Build 0)  -->
<svg version="1.1"
	 id="Layer_1" xmlns:cc="http://creativecommons.org/ns#" xmlns:dc="http://purl.org/dc/elements/1.1/" xmlns:inkscape="http://www.inkscape.org/namespaces/inkscape" xmlns:rdf="http://www.w3.org/1999/02/22-rdf-syntax-ns#" xmlns:sodipodi="http://sodipodi.sourceforge.net/DTD/sodipodi-0.dtd" xmlns:svg="http://www.w3.org/2000/svg"
	 xmlns="http://www.w3.org/2000/svg" xmlns:xlink="http://www.w3.org/1999/xlink" x="0px" y="0px" viewBox="0 0 64 80"
	 style="enable-background:new 0 0 64 80;" xml:space="preserve">
<g>
	<path d="M53.5,49.3C53.5,49.3,53.5,49.3,53.5,49.3c0.3,0,0.5-0.2,0.5-0.5c0,0,0,0,0,0c0-0.3-0.2-0.5-0.5-0.5c0,0,0,0,0,0
		c-0.3,0-0.5,0.2-0.5,0.5C53,49.1,53.2,49.3,53.5,49.3z"/>
	<path d="M61.5,46C61.5,46,61.5,46,61.5,46H61v-0.5c0-0.3-0.2-0.5-0.5-0.5c0,0,0,0,0,0c-0.3,0-0.5,0.2-0.5,0.5V46h-0.5
		c-0.3,0-0.5,0.2-0.5,0.5c0,0.3,0.2,0.5,0.5,0.5c0,0,0,0,0,0H60v0.5c0,0.3,0.2,0.5,0.5,0.5c0.3,0,0.5-0.2,0.5-0.5c0,0,0,0,0,0V47
		h0.5c0.3,0,0.5-0.2,0.5-0.5C62,46.2,61.8,46,61.5,46z"/>
	<path d="M57,39.2l-3-0.8v-1c0-0.6-0.4-1.1-1-1.3v-7.8c0-1.3-1-2.3-2.3-2.3h-7.8l0.6-0.4c0.2-0.1,0.3-0.4,0.2-0.7c0,0,0,0,0,0
		l-4-6.9c-0.1-0.2-0.4-0.3-0.7-0.2c0,0,0,0,0,0l-2.6,1.5c-0.2,0.1-0.3,0.4-0.2,0.7c0,0,0,0,0,0l0.1,0.1L34.9,21c0,0-0.1,0-0.1-0.1
		c0,0-0.1,0-0.1,0c-0.3-0.2-0.7-0.3-1-0.3c0,0,0,0,0,0c-0.1,0-0.2,0-0.3,0c0,0-0.1,0-0.1,0c-0.1,0-0.1,0-0.2,0c-0.1,0-0.2,0-0.4,0
		c0,0,0,0-0.1,0c0,0-0.1,0-0.1,0c-0.2,0-0.3,0.1-0.5,0.1c-0.1,0-0.1,0-0.2,0.1c-0.2,0.1-0.4,0.2-0.6,0.3h0L31,21.1h0L30.8,21
		c-0.2-0.1-0.5-0.2-0.7-0.3c-0.2-0.1-0.5-0.1-0.7-0.2h0h0c-0.2,0-0.4,0-0.7,0c-0.1,0-0.1,0-0.2,0c-0.2,0-0.3,0-0.5,0.1
		c-0.1,0-0.1,0-0.2,0c-0.2,0.1-0.4,0.1-0.6,0.2c-0.1,0-0.1,0.1-0.2,0.1l-1.4-0.8l0.1-0.1c0.1-0.2,0.1-0.5-0.2-0.7c0,0,0,0,0,0
		L23,17.8c-0.1,0-0.2-0.1-0.3-0.1c-0.2,0-0.3,0.1-0.4,0.2l-4,6.9c-0.1,0.2-0.1,0.5,0.2,0.7c0,0,0,0,0,0l0.6,0.4h-7.8
		C10,26,9,27,9,28.3V40l-0.7,0.4l-1.9,1.1l-0.3,0.2c0,0,0,0,0,0c0,0,0,0,0,0l-0.6,0.4l-1.7,1c-0.8,0.4-1,1.4-0.7,2.2l-0.6,0.3
		c-0.4,0.2-0.6,0.8-0.3,1.2l0.8,1.4c0.2,0.4,0.8,0.6,1.2,0.3l0.6-0.3c0.4,0.5,1,0.8,1.6,0.7L7.3,52H6.5C6.2,52,6,52.3,6,52.5
		c0,3,2.4,5.5,5.5,5.5h39.1c2.9,0,5.2-2.2,5.4-5h0.5c0.8,0,1.5-0.6,1.5-1.4v-1.1v-3.4v-2.7c0-0.5-0.3-0.9-0.7-1.2l0.7-2.4
		C58.1,40.1,57.7,39.3,57,39.2z M56.2,40l0.5,0.1c0.2,0,0.3,0.2,0.2,0.4l-0.2,0.8c-0.3-0.1-0.5-0.3-0.6-0.5
		C56.1,40.5,56.1,40.2,56.2,40z M54,39.4l1.2,0.3c-0.2,0.5-0.2,1,0,1.5c0.2,0.5,0.7,0.9,1.2,1.1L56.3,43H54V39.4z M52.7,37
		c0.2,0,0.3,0.1,0.3,0.3V38c-0.3,0-0.6-0.2-0.8-0.3C52.1,37.5,52,37.2,52,37H52.7z M52,41.7h-0.5v0.5c0,0.3-0.1,0.6-0.3,0.7h-0.2
		v-1.3h-0.5V43h-0.2c-0.2-0.1-0.3-0.4-0.3-0.7v-0.2v0v-0.4h-0.5v0.2L48.2,43H47v-4c0.6,0,1.1-0.3,1.5-0.7c0.3-0.4,0.5-0.8,0.5-1.3h2
		c0,0.5,0.1,0.9,0.5,1.3c0.4,0.4,0.9,0.6,1.5,0.7v4h-1L52,41.7L52,41.7z M49.5,43H49l0.4-0.4C49.4,42.8,49.4,42.9,49.5,43z
		 M44.8,41.1c0.2-0.5,0.2-1,0.1-1.4l1.2-0.3V43h-2.3l-0.2-0.8C44,42.1,44.5,41.7,44.8,41.1z M43.2,41.3L43,40.5c0-0.2,0-0.4,0.2-0.4
		l0.6-0.2c0.1,0.2,0.1,0.5,0,0.8C43.7,41,43.5,41.2,43.2,41.3z M44.1,38.9c-0.1,0-0.1,0-0.2,0L43,39.2c-0.7,0.2-1.1,0.9-0.9,1.6
		l0.7,2.4c-0.4,0.2-0.7,0.7-0.7,1.2V49H13v-3.8l0.1,0c1-0.6,2.2-0.3,2.9,0.6l0.1,0.2c0.1,0.2,0.3,0.3,0.6,0.2c0.1,0,0.2-0.1,0.2-0.1
		l1.6-0.9c0.2-0.1,0.3-0.4,0.2-0.7L17.3,42c1.1-0.9,1.4-2.4,0.7-3.6c-0.7-1.2-2.2-1.7-3.5-1.2l-1.3-2.2c0-0.1-0.1-0.1-0.2-0.2V30
		h12.2c0,0,0,0,0,0c0.3,0.4,0.7,0.6,1.2,0.6c0,0.2,0,0.5,0.1,0.7c0.3,0.6,1.1,0.8,1.7,0.5c0,0.2,0,0.3,0.1,0.5
		c0.4,0.7,1.2,0.9,1.9,0.5l0.9-0.5l0.9,0.5c0.7,0.4,1.5,0.2,1.9-0.5c0.1-0.2,0-0.3,0.1-0.5c0.2,0.1,0.3,0.1,0.5,0.1
		c0.3,0,0.6-0.1,0.9-0.3c0.1-0.1,0.2-0.2,0.3-0.4c0.1-0.2,0.1-0.4,0.1-0.7c0.5,0,1-0.1,1.2-0.6c0,0,0,0,0,0H49v6h-1.7
		c-0.7,0-1.3,0.6-1.3,1.3v1L44.1,38.9z M11,52l-1-3.4v-1.7l1.6-0.9l0.4-0.2v3.8c0,0.3,0.2,0.5,0.5,0.5H42v1.6c0,0.2,0,0.3,0.1,0.4
		H11z M35,53v0.8c0,0.5-0.3,0.8-0.8,0.8h-6.4c-0.4,0-0.8-0.4-0.8-0.8V53H35z M17.6,44.5L16.7,45l-5-8.7l0.8-0.5L17.6,44.5z
		 M15.1,38.1c0.2,0,0.4-0.1,0.6-0.1c0.6,0,1.1,0.3,1.4,0.8c0.4,0.7,0.2,1.5-0.3,2.1l-0.8-1.4L15.1,38.1z M26.1,29.5l0.4,0.2
		C26.3,29.8,26.2,29.7,26.1,29.5C26.1,29.5,26.1,29.5,26.1,29.5C26.1,29.5,26.1,29.5,26.1,29.5z M27.5,30.3L27.5,30.3
		C27.6,30.3,27.6,30.3,27.5,30.3l0.7,0.4l-0.4,0.2c-0.2,0.1-0.4,0.1-0.5-0.1c0,0,0,0,0,0C27.3,30.6,27.3,30.4,27.5,30.3z M29.3,31.3
		l0.7,0.4L29.6,32c-0.2,0.1-0.4,0.1-0.5-0.1c0,0,0,0,0,0C29,31.6,29.1,31.4,29.3,31.3z M48,37c0,0.2,0,0.5-0.2,0.7
		C47.6,37.8,47.3,38,47,38v-0.7c0-0.2,0.1-0.3,0.3-0.3H48z M50.7,27c0.7,0,1.3,0.6,1.3,1.3V36h-2v-6.5c0-0.3-0.2-0.5-0.5-0.5H36.9
		c0-0.1-0.1-0.2-0.1-0.3c0,0,0,0,0.1-0.1c0.2-0.1,0.4-0.2,0.5-0.4c0.1-0.2,0.1-0.3,0.2-0.5c0.1-0.2,0.2-0.5,0.3-0.8h2.5
		c0.2,0.2,0.4,0.3,0.6,0.1l0.2-0.1H50.7z M38.2,26l1.1-0.6l0.4,0.6H38.2z M39.1,19l3.5,6.1l-1.7,1h0l-0.9-1.5c0,0,0,0,0,0L37.4,20
		L39.1,19z M36.8,21l2,3.5l-1,0.6c-0.1-0.3-0.2-0.5-0.3-0.8c0,0,0-0.1-0.1-0.1v0l-1-1.8c-0.1-0.2-0.2-0.3-0.3-0.4
		c0,0-0.1-0.1-0.1-0.1c-0.1-0.1-0.1-0.1-0.2-0.2L36.8,21z M31.3,22.1C31.3,22.1,31.3,22.1,31.3,22.1l0.4-0.2c0,0,0,0,0,0
		c0.2-0.1,0.3-0.2,0.5-0.2c0.1,0,0.1,0,0.2-0.1c0.1,0,0.2-0.1,0.3-0.1c0.1,0,0.1,0,0.2,0c0.1,0,0.2,0,0.3,0c0.1,0,0.1,0,0.2,0
		c0.2,0,0.4,0.1,0.6,0.1c0,0,0.1,0,0.1,0c0.2,0.1,0.3,0.1,0.5,0.2c0,0,0.1,0.1,0.1,0.1c0.1,0.1,0.3,0.2,0.4,0.3c0,0,0.1,0.1,0.1,0.1
		c0.2,0.2,0.3,0.3,0.4,0.5l1,1.8v0c0.3,0.6,0.4,1.2,0.3,1.8c-0.1,0-0.1-0.1-0.2-0.1l-3.4-2c0-0.2,0-0.5-0.1-0.7c0,0,0-0.1-0.1-0.1
		c0,0,0,0,0,0c0,0,0,0,0,0c-0.4-0.7-1.3-0.9-2-0.5c0,0,0,0,0,0l-0.1,0.1L29,24.2c-0.4,0.2-0.8,0.1-1.2-0.2l1-0.6L31.3,22.1z
		 M28.7,21.5c0.4,0,0.7,0,1.1,0.1h0c0,0,0.1,0,0.1,0.1l-1.6,0.9l-1.6,0.9c-0.2,0.1-0.3,0.4-0.2,0.7c0.6,1.1,1.9,1.5,2.9,0.9l1.5-0.9
		l1,0.6c0,0,0,0,0.1,0l0.4,0.2c0,0,0,0,0,0l3.7,2.1c0.2,0.1,0.2,0.3,0.1,0.5c0,0,0,0,0,0.1C36.2,28,36,28,35.9,27.9l-4.1-2.4
		l-0.4-0.2c-0.2-0.1-0.5-0.1-0.7,0.2c-0.1,0.2-0.1,0.5,0.2,0.7l0.4,0.2l4.1,2.4h0l0.4,0.2c0,0,0,0,0.1,0.1c0.1,0.1,0.2,0.3,0.1,0.5
		c0,0-0.1,0.1-0.1,0.1c-0.1,0.1-0.2,0.1-0.3,0.1c0,0-0.1,0-0.1-0.1L35,29.4l0,0l-4.1-2.4l-0.4-0.2c-0.2-0.1-0.5-0.1-0.7,0.2
		c-0.1,0.2-0.1,0.5,0.2,0.7l0.4,0.2l4.1,2.4c0,0,0.1,0.1,0.1,0.1c0,0,0.1,0.1,0.1,0.1v0c0,0.1,0,0.2,0,0.3c0,0-0.1,0.1-0.1,0.1
		C34.4,31,34.4,31,34.3,31c0,0-0.1,0-0.1-0.1l-0.9-0.5l-3.7-2.1l-0.9-0.5c-0.2-0.1-0.5,0-0.7,0.2c-0.1,0.2,0,0.5,0.2,0.7l0.9,0.5
		l3.7,2.1c0.2,0.1,0.2,0.3,0.1,0.5c0,0-0.1,0.1-0.1,0.1C32.7,32,32.6,32,32.5,32c0,0-0.1,0-0.1-0.1l-4.3-2.5l0,0l-0.3-0.1l-1.3-0.8
		c-0.1-0.1-0.2-0.1-0.3-0.2c0,0,0,0,0,0c-0.4-0.3-0.7-0.7-0.9-1.2c0,0,0,0,0,0c-0.1-0.1-0.1-0.3-0.1-0.4c0,0,0-0.1,0-0.1
		c0-0.1,0-0.2,0-0.4c0-0.1,0-0.1,0-0.2c0-0.1,0-0.2,0-0.3c0-0.1,0-0.2,0.1-0.3c0-0.1,0-0.1,0.1-0.2c0.1-0.2,0.1-0.3,0.2-0.5v0l1-1.8
		C27,22,27.8,21.5,28.7,21.5z M26.2,21.6C26.2,21.6,26.2,21.7,26.2,21.6c-0.1,0.1-0.1,0.2-0.2,0.2c-0.1,0.2-0.3,0.4-0.4,0.6l-1,1.8
		v0c0,0,0,0,0,0.1c-0.1,0.2-0.2,0.4-0.2,0.6c0,0.1-0.1,0.2-0.1,0.3l-1-0.6l2-3.5L26.2,21.6z M23.8,26h-1.5l0.4-0.6L23.8,26z
		 M22.9,19l1.7,1l0,0c-0.1,0.1-0.1,0.1-0.1,0.2l-2.4,4.1c-0.1,0.1-0.1,0.2-0.1,0.3L21.2,26h0l-1.7-1L22.9,19z M10,28.3
		c0-0.7,0.6-1.3,1.3-1.3h9.6l0.2,0.1c0.2,0.1,0.5,0.1,0.6-0.1h2.5c0.2,0.7,0.5,1.3,1,1.8c0,0.1-0.1,0.1-0.1,0.2H12.5
		c-0.3,0-0.5,0.2-0.5,0.5v5.5l-1.2,0.7c-0.2,0.1-0.3,0.4-0.2,0.7c0,0,0,0,0,0l0.1,0.2c0.4,1,0.1,2.1-0.7,2.7V28.3z M8.8,41.2
		l1.5-0.8c0.7-0.4,1.2-1.1,1.5-1.9l3.1,5.4c-0.8-0.2-1.6-0.1-2.4,0.3l-1.5,0.8l-1.8,1.1L7,42.3L8.8,41.2z M3.7,47.6L3,46.4l0.5-0.3
		l0.7,1.2L3.7,47.6z M5.5,47.6l-0.2-0.3c0,0,0,0,0,0l-1.2-2l-0.2-0.3c-0.2-0.3-0.1-0.7,0.2-0.9l1.7-1l0.2-0.1l2.2,3.9l-0.2,0.1
		l-1.7,1C6.1,48,5.7,47.9,5.5,47.6z M7.3,48.5l1.4-0.8L10,52H8.3L7.3,48.5z M50.5,57H11.5c-2.3,0-4.1-1.7-4.4-4H26v0.8
		c0,1,0.8,1.8,1.8,1.8h6.4c1,0,1.8-0.8,1.8-1.8V53h18.9C54.6,55.3,52.8,57,50.5,57z M57,50h-4.6L52,49.5v-0.7v-0.7l0.4-0.5H57V50z
		 M57,46.6h-4.8c-0.2,0-0.3,0.1-0.4,0.2l-0.7,0.9C51,47.7,51,47.8,51,48v0.8v0.9c0,0.1,0,0.2,0.1,0.3l0.7,0.8
		c0.1,0.1,0.2,0.2,0.4,0.2H57v0.6c0,0.2-0.2,0.4-0.5,0.4h-13c-0.3,0-0.5-0.2-0.5-0.4v-7.2c0-0.2,0.2-0.4,0.5-0.4h13
		c0.3,0,0.5,0.2,0.5,0.4V46.6z"/>
	<path d="M56,34.5C56,34.5,56,34.5,56,34.5c0,0.3,0.2,0.5,0.5,0.5s0.5-0.2,0.5-0.5c0,0,0,0,0,0c0.3,0,0.5-0.2,0.5-0.5
		c0-0.3-0.2-0.5-0.5-0.5c0,0,0,0,0,0c0-0.3-0.2-0.5-0.5-0.5c0,0,0,0,0,0c-0.3,0-0.5,0.2-0.5,0.5c-0.3,0-0.5,0.2-0.5,0.5
		C55.5,34.3,55.7,34.5,56,34.5z"/>
	<circle cx="60.5" cy="39.5" r="0.5"/>
	<rect x="15" y="33.2" transform="matrix(0.5003 -0.8658 0.8658 0.5003 -21.3177 30.5125)" width="1.6" height="1"/>
	<rect x="19.7" y="39.4" transform="matrix(0.9662 -0.2577 0.2577 0.9662 -9.5947 6.6396)" width="1.6" height="1"/>
	<path d="M40,43.5C40,43.5,40,43.5,40,43.5c0-0.3-0.2-0.5-0.5-0.5c0,0,0,0,0,0c-0.3,0-0.5,0.2-0.5,0.5c0,0,0,0,0,0
		c-0.3,0-0.5,0.2-0.5,0.5c0,0.3,0.2,0.5,0.5,0.5c0,0,0,0,0,0c0,0.3,0.2,0.5,0.5,0.5s0.5-0.2,0.5-0.5c0,0,0,0,0,0
		c0.3,0,0.5-0.2,0.5-0.5C40.5,43.7,40.3,43.5,40,43.5z"/>
	<circle cx="38.5" cy="38.5" r="0.5"/>
	<rect x="17.1" y="34.8" transform="matrix(0.7071 -0.7071 0.7071 0.7071 -19.7536 23.0017)" width="1.6" height="1"/>
	<path d="M21,24.2C21,24.2,21,24.2,21,24.2c-0.1-0.1-0.2-0.1-0.3-0.1c-0.2,0-0.3,0.1-0.4,0.2c-0.1,0.2-0.1,0.5,0.2,0.7
		c0.2,0.1,0.5,0.1,0.7-0.2C21.4,24.7,21.3,24.4,21,24.2z"/>
	<path d="M42.5,34C42.5,34,42.5,34,42.5,34H42v-0.5c0-0.3-0.2-0.5-0.5-0.5c0,0,0,0,0,0c-0.3,0-0.5,0.2-0.5,0.5V34h-0.5
		c-0.3,0-0.5,0.2-0.5,0.5c0,0.3,0.2,0.5,0.5,0.5c0,0,0,0,0,0H41v0.5c0,0.3,0.2,0.5,0.5,0.5c0.3,0,0.5-0.2,0.5-0.5c0,0,0,0,0,0V35
		h0.5c0.3,0,0.5-0.2,0.5-0.5C43,34.2,42.8,34,42.5,34z"/>
	<rect x="18.7" y="37" transform="matrix(0.8659 -0.5002 0.5002 0.8659 -16.1194 14.7796)" width="1.6" height="1"/>
	<path d="M40.8,24.9c0.1,0.2,0.4,0.3,0.7,0.2c0.2-0.1,0.3-0.4,0.2-0.7c-0.1-0.2-0.3-0.3-0.4-0.2c-0.1,0-0.2,0-0.2,0.1
		C40.7,24.4,40.6,24.7,40.8,24.9C40.8,24.9,40.8,24.9,40.8,24.9z"/>
	<rect x="20.1" y="42.1" width="1.6" height="1"/>
	<path d="M33.2,39.3c1.1,0,2-0.9,2-2c0-1.1-0.9-2-2-2s-2,0.9-2,2c0,0.2,0,0.4,0.1,0.5l-3.9,2c-0.4-0.3-0.9-0.5-1.4-0.5
		c-1.2,0-2.2,1-2.2,2.2c0,1.2,1,2.2,2.2,2.2c0.5,0,1-0.2,1.4-0.5l4,2c0,0.2-0.1,0.3-0.1,0.5c0,1.1,0.9,2,2,2s2-0.9,2-2
		c0-1.1-0.9-2-2-2c-0.6,0-1.1,0.2-1.5,0.6l-3.8-1.9c0.2-0.3,0.2-0.6,0.2-1c0-0.3-0.1-0.7-0.2-1l3.8-1.9
		C32.1,39.1,32.6,39.3,33.2,39.3z M33.2,36.3c0.6,0,1,0.4,1,1c0,0.6-0.4,1-1,1s-1-0.4-1-1C32.2,36.8,32.6,36.3,33.2,36.3z
		 M25.9,42.8c-0.7,0-1.2-0.6-1.2-1.2c0-0.7,0.6-1.2,1.2-1.2s1.2,0.6,1.2,1.2C27.2,42.3,26.6,42.8,25.9,42.8z M32.2,45.4
		C32.2,45.4,32.2,45.4,32.2,45.4c0,0,0.1-0.1,0.1-0.1c0.2-0.3,0.5-0.5,0.8-0.5c0.6,0,1,0.4,1,1c0,0.6-0.4,1-1,1s-1-0.4-1-1
		C32.2,45.7,32.2,45.5,32.2,45.4z"/>
</g>
</svg>
