<?xml version="1.0" encoding="utf-8"?>
<!-- Generator: Adobe Illustrator 21.1.0, SVG Export Plug-In . SVG Version: 6.00 Build 0)  -->
<svg version="1.1" id="Layer_1" xmlns="http://www.w3.org/2000/svg" xmlns:xlink="http://www.w3.org/1999/xlink" x="0px" y="0px"
	 viewBox="0 0 66 82.5" style="enable-background:new 0 0 66 82.5;" xml:space="preserve">
<path d="M64.2,40.2h-4.5c-0.4-14.1-11.8-25.6-26-26V9.8C33.8,9.3,33.4,9,33,9c-0.4,0-0.8,0.3-0.8,0.8v4.5c-14.1,0.4-25.6,11.8-26,26
	H1.8C1.3,40.2,1,40.6,1,41c0,0.4,0.3,0.8,0.8,0.8h4.5c0.4,14.1,11.8,25.6,26,26v4.5c0,0.4,0.3,0.8,0.8,0.8c0.4,0,0.8-0.3,0.8-0.8
	v-4.5c14.1-0.4,25.6-11.8,26-26h4.5c0.4,0,0.8-0.3,0.8-0.8C65,40.6,64.7,40.2,64.2,40.2z M33.8,23.9c8.9,0.4,16,7.5,16.4,16.4H42
	c-0.4-4.4-3.9-7.9-8.2-8.2V23.9z M50.1,41.8c-0.4,8.9-7.5,16-16.4,16.4V50c4.4-0.4,7.9-3.9,8.2-8.2H50.1z M32.2,15.8v6.6
	c-9.7,0.4-17.5,8.2-17.9,17.9H7.8C8.2,26.9,18.9,16.2,32.2,15.8z M32.2,23.9V32c-4.4,0.4-7.9,3.9-8.2,8.2h-8.1
	C16.3,31.4,23.4,24.3,32.2,23.9z M32.2,66.2C18.9,65.8,8.2,55.1,7.8,41.8h6.6c0.4,9.7,8.2,17.5,17.9,17.9V66.2z M32.2,58.1
	c-8.9-0.4-16-7.5-16.4-16.4H24c0.4,4.4,3.9,7.9,8.2,8.2V58.1z M33,48.3c-4,0-7.3-3.3-7.3-7.3c0-4,3.3-7.3,7.3-7.3
	c4,0,7.3,3.3,7.3,7.3S37,48.3,33,48.3z M33.8,66.2v-6.6c9.7-0.4,17.5-8.2,17.9-17.9h6.6C57.8,55.1,47.1,65.8,33.8,66.2z M51.6,40.2
	c-0.4-9.7-8.2-17.5-17.9-17.9v-6.6c13.3,0.4,24.1,11.1,24.5,24.5H51.6z"/>
</svg>
