<?xml version="1.0" encoding="utf-8"?>
<!-- Generator: Adobe Illustrator 21.1.0, SVG Export Plug-In . SVG Version: 6.00 Build 0)  -->
<svg version="1.1" id="Layer_1" xmlns="http://www.w3.org/2000/svg" xmlns:xlink="http://www.w3.org/1999/xlink" x="0px" y="0px"
	 viewBox="0 0 96 120" style="enable-background:new 0 0 96 120;" xml:space="preserve">
<path d="M77.8,12.5h-2.4v8.4H50.7v-8.4H32.7v8.4H9v74h23.7v8.7h17.9v-8.7h25.5h1.6c5.1,0,9.2-4.1,9.2-9.2v-0.2V21.6
	C87,16.6,82.9,12.5,77.8,12.5z M49.1,94.9v7.1H34.3v-7.1v-1.6V79.1h6.2v-0.8v-0.8h-6.2v-8.8h8.4v-0.8v-0.8h-8.4v-8.8h6.2v-0.8v-0.8
	h-6.2v-8.8h8.4v-0.8v-0.8h-8.4v-8.8h6.2v-0.8v-0.8h-6.2v-8.8h8.4v-0.8v-0.8h-8.4v-3.1v-1.6v-6.8h14.8v6.8v1.6v70.9L49.1,94.9
	L49.1,94.9z M10.6,93.3V22.4h22.2v70.9L10.6,93.3L10.6,93.3z M85.4,85.7c0,4.2-3.4,7.6-7.6,7.6h-1.6H50.7V22.4h24.8v54.7v0.8h2.4
	c4.2,0,7.6,3.4,7.6,7.6L85.4,85.7L85.4,85.7z M85.4,80.4c-1.7-2.4-4.4-4-7.6-4H77V20.9v-6.8h0.8c4.2,0,7.6,3.4,7.6,7.6V80.4z"/>
<path d="M45,93.3c-0.7-1.1-1.9-1.8-3.3-1.8s-2.6,0.7-3.3,1.8c-0.3,0.5-0.5,1-0.6,1.6c0,0.2,0,0.3,0,0.5c0,2.1,1.7,3.9,3.9,3.9
	c2.1,0,3.9-1.7,3.9-3.9c0-0.2,0-0.3,0-0.5C45.5,94.3,45.3,93.8,45,93.3z M41.7,97.6c-1.3,0-2.3-1-2.3-2.3c0-0.2,0-0.3,0-0.5
	c0.1-0.7,0.6-1.3,1.2-1.6c0.3-0.1,0.6-0.2,1-0.2s0.7,0.1,1,0.2c0.6,0.3,1.1,0.9,1.2,1.6c0,0.1,0,0.3,0,0.5
	C44,96.6,43,97.6,41.7,97.6z"/>
</svg>
