<?xml version="1.0" encoding="utf-8"?>
<!-- Generator: Adobe Illustrator 21.1.0, SVG Export Plug-In . SVG Version: 6.00 Build 0)  -->
<svg version="1.1" id="Layer_1" xmlns="http://www.w3.org/2000/svg" xmlns:xlink="http://www.w3.org/1999/xlink" x="0px" y="0px"
	 viewBox="0 0 100 125" style="enable-background:new 0 0 100 125;" xml:space="preserve">
<path d="M75.5,41.4V19.9c0-0.6-0.4-1-1-1H63c-0.6,0-1,0.4-1,1v9.8L49.9,19.1c-0.4-0.3-0.9-0.3-1.3,0l-39,34c-0.4,0.4-0.5,1-0.1,1.4
	c0.4,0.4,1,0.5,1.4,0.1l2.9-2.5v45.7c0,0.6,0.4,1,1,1h69c0.6,0,1-0.4,1-1V52.2l2.9,2.5c0.2,0.2,0.4,0.2,0.7,0.2
	c0.3,0,0.6-0.1,0.8-0.3c0.4-0.4,0.3-1-0.1-1.4L75.5,41.4z M64,20.9h9.5v18.8L64,31.4V20.9z M82.7,96.9h-67V50.4l33.5-29.2l33.5,29.2
	V96.9z"/>
</svg>
