<?xml version="1.0" encoding="utf-8"?>
<!-- Generator: Adobe Illustrator 21.1.0, SVG Export Plug-In . SVG Version: 6.00 Build 0)  -->
<svg version="1.1" id="Layer_1" xmlns="http://www.w3.org/2000/svg" xmlns:xlink="http://www.w3.org/1999/xlink" x="0px" y="0px"
	 viewBox="0 0 100 125" style="enable-background:new 0 0 100 125;" xml:space="preserve">
<path d="M91.4,26.7H8.6c-0.9,0-1.6,0.7-1.6,1.6v79c0,0.9,0.7,1.6,1.6,1.6h82.8c0.9,0,1.6-0.7,1.6-1.6V28.2
	C93,27.4,92.3,26.7,91.4,26.7z M89.8,105.7H10.2V29.8h79.8v75.9H89.8z"/>
<path d="M32.9,53.8c4.9,0,8.7-4,8.7-8.7c0-4.9-4-8.7-8.7-8.7c-4.9,0-8.7,4-8.7,8.7S28.2,53.8,32.9,53.8z M32.9,39.4
	c3.1,0,5.7,2.5,5.7,5.7c0,3.1-2.5,5.7-5.7,5.7c-3.1,0-5.7-2.5-5.7-5.7C27.3,41.9,29.9,39.4,32.9,39.4z"/>
<path d="M67.1,53.8c4.9,0,8.7-4,8.7-8.7c0-4.9-4-8.7-8.7-8.7c-4.9,0-8.7,4-8.7,8.7C58.4,49.8,62.2,53.8,67.1,53.8z M67.1,39.4
	c3.1,0,5.7,2.5,5.7,5.7c0,3.1-2.5,5.7-5.7,5.7c-3.1,0-5.7-2.5-5.7-5.7S63.9,39.4,67.1,39.4z"/>
<path d="M58.4,78.3V98c0,0.9,0.7,1.6,1.6,1.6h14.4c0.9,0,1.6-0.7,1.6-1.6V78.3c2.6-0.7,4.5-3.1,4.6-5.9c0,0,0,0,0-0.1V57.2
	c0-0.9-0.7-1.6-1.6-1.6H55.2c-0.9,0-1.6,0.7-1.6,1.6v15.2l0,0C53.7,75.3,55.7,77.7,58.4,78.3z M56.8,72.3V58.8h20.5v13.6l0,0
	c0,1.7-1.4,3.1-3.1,3.1c-0.9,0-1.6,0.7-1.6,1.6l0,0v19.5H61.4V77c0-0.9-0.7-1.6-1.6-1.6l0,0l0,0C58.1,75.5,56.8,74,56.8,72.3
	C56.8,72.5,56.8,72.5,56.8,72.3z"/>
<path d="M24.2,78.3V98c0,0.9,0.7,1.6,1.6,1.6h14.4c0.9,0,1.6-0.7,1.6-1.6V78.3c2.6-0.7,4.6-3.1,4.6-5.9l0,0V57.2
	c0-0.9-0.7-1.6-1.6-1.6H21.1c-0.9,0-1.6,0.7-1.6,1.6v15.2l0,0C19.6,75.3,21.6,77.7,24.2,78.3z M22.7,72.3V58.8h20.5v13.7l0,0
	c0,1.7-1.4,3.1-3.1,3.1c-0.9,0-1.6,0.7-1.6,1.6l0,0v19.5H27.4V77c0-0.9-0.7-1.6-1.6-1.6C24.1,75.5,22.7,74,22.7,72.3L22.7,72.3z"/>
</svg>
