<?xml version="1.0" encoding="utf-8"?>
<!-- Generator: Adobe Illustrator 21.1.0, SVG Export Plug-In . SVG Version: 6.00 Build 0)  -->
<svg version="1.1" id="Layer_1" xmlns="http://www.w3.org/2000/svg" xmlns:xlink="http://www.w3.org/1999/xlink" x="0px" y="0px"
	 viewBox="0 0 512 512" style="enable-background:new 0 0 512 512;" xml:space="preserve">
<style type="text/css">
	.st0{fill:#BD081C;}
</style>
<path class="st0" d="M256,0C114.6,0,0,114.6,0,256s114.6,256,256,256s256-114.6,256-256S397.4,0,256,0z M280.8,323.2
	c-18.9,0-36.6-10.2-42.6-21.8c0,0-10.1,40.2-12.3,48c-7.6,27.4-29.8,54.9-31.5,57.1c-1.2,1.6-3.9,1.1-4.1-1
	c-0.5-3.5-6.1-38.1,0.5-66.3c3.3-14.2,22.5-95.1,22.5-95.1s-5.6-11.1-5.6-27.6c0-25.9,15-45.2,33.7-45.2c15.9,0,23.5,11.9,23.5,26.2
	c0,16-10.2,39.8-15.4,61.9c-4.4,18.5,9.3,33.6,27.5,33.6c33.1,0,55.3-42.5,55.3-92.8c0-38.3-25.8-66.9-72.6-66.9
	c-52.9,0-86,39.5-86,83.6c0,15.2,4.5,25.9,11.5,34.2c3.2,3.8,3.7,5.4,2.5,9.7c-0.9,3.2-2.8,11-3.6,14c-1.2,4.4-4.8,6-8.8,4.4
	c-24.4-9.9-35.7-36.7-35.7-66.7c0-49.6,41.8-109,124.8-109c66.7,0,110.5,48.2,110.5,100C375,272.1,336.9,323.2,280.8,323.2z"/>
</svg>
