<?xml version="1.0" encoding="utf-8"?>
<!-- Generator: Adobe Illustrator 21.1.0, SVG Export Plug-In . SVG Version: 6.00 Build 0)  -->
<svg version="1.1" id="Layer_1" xmlns="http://www.w3.org/2000/svg" xmlns:xlink="http://www.w3.org/1999/xlink" x="0px" y="0px"
	 viewBox="0 0 66 82.5" style="enable-background:new 0 0 66 82.5;" xml:space="preserve">
<g>
	<path d="M49.8,6H1C0.4,6,0,6.4,0,7v64c0,0.6,0.4,1,1,1h48.8c0.6,0,1-0.4,1-1V7C50.8,6.4,50.4,6,49.8,6z M48.8,70H2V8h46.8V70z"/>
	<path d="M5.8,29.9h39.3c0.6,0,1-0.4,1-1V12.4c0-0.6-0.4-1-1-1H5.8c-0.6,0-1,0.4-1,1v16.5C4.8,29.4,5.2,29.9,5.8,29.9z M6.8,13.4
		h37.3v14.5H6.8V13.4z"/>
	<path d="M12.4,33.2H6.3c-0.6,0-1,0.4-1,1v6.3c0,0.6,0.4,1,1,1h6.1c0.6,0,1-0.4,1-1v-6.3C13.4,33.6,13,33.2,12.4,33.2z M11.4,39.5
		H7.3v-4.3h4.1V39.5z"/>
	<path d="M23.3,33.2h-6.1c-0.6,0-1,0.4-1,1v6.3c0,0.6,0.4,1,1,1h6.1c0.6,0,1-0.4,1-1v-6.3C24.3,33.6,23.8,33.2,23.3,33.2z
		 M22.3,39.5h-4.1v-4.3h4.1V39.5z"/>
	<path d="M34.2,33.2h-6.1c-0.6,0-1,0.4-1,1v6.3c0,0.6,0.4,1,1,1h6.1c0.6,0,1-0.4,1-1v-6.3C35.2,33.6,34.7,33.2,34.2,33.2z
		 M33.2,39.5h-4.1v-4.3h4.1V39.5z"/>
	<path d="M45.1,33.2H39c-0.6,0-1,0.4-1,1v6.3c0,0.6,0.4,1,1,1h6.1c0.6,0,1-0.4,1-1v-6.3C46.1,33.6,45.6,33.2,45.1,33.2z M44.1,39.5
		H40v-4.3h4.1V39.5z"/>
	<path d="M12.4,45.5H6.3c-0.6,0-1,0.4-1,1v6.3c0,0.6,0.4,1,1,1h6.1c0.6,0,1-0.4,1-1v-6.3C13.4,46,13,45.5,12.4,45.5z M11.4,51.8H7.3
		v-4.3h4.1V51.8z"/>
	<path d="M23.3,45.5h-6.1c-0.6,0-1,0.4-1,1v6.3c0,0.6,0.4,1,1,1h6.1c0.6,0,1-0.4,1-1v-6.3C24.3,46,23.8,45.5,23.3,45.5z M22.3,51.8
		h-4.1v-4.3h4.1V51.8z"/>
	<path d="M34.2,45.5h-6.1c-0.6,0-1,0.4-1,1v6.3c0,0.6,0.4,1,1,1h6.1c0.6,0,1-0.4,1-1v-6.3C35.2,46,34.7,45.5,34.2,45.5z M33.2,51.8
		h-4.1v-4.3h4.1V51.8z"/>
	<path d="M45.1,45.5H39c-0.6,0-1,0.4-1,1v18.6c0,0.6,0.4,1,1,1h6.1c0.6,0,1-0.4,1-1V46.5C46.1,46,45.6,45.5,45.1,45.5z M44.1,64.1
		H40V47.5h4.1V64.1z"/>
	<path d="M12.4,57.8H6.3c-0.6,0-1,0.4-1,1v6.3c0,0.6,0.4,1,1,1h6.1c0.6,0,1-0.4,1-1v-6.3C13.4,58.3,13,57.8,12.4,57.8z M11.4,64.1
		H7.3v-4.3h4.1V64.1z"/>
	<path d="M23.3,57.8h-6.1c-0.6,0-1,0.4-1,1v6.3c0,0.6,0.4,1,1,1h6.1c0.6,0,1-0.4,1-1v-6.3C24.3,58.3,23.8,57.8,23.3,57.8z
		 M22.3,64.1h-4.1v-4.3h4.1V64.1z"/>
	<path d="M34.2,57.8h-6.1c-0.6,0-1,0.4-1,1v6.3c0,0.6,0.4,1,1,1h6.1c0.6,0,1-0.4,1-1v-6.3C35.2,58.3,34.7,57.8,34.2,57.8z
		 M33.2,64.1h-4.1v-4.3h4.1V64.1z"/>
	<path d="M59.8,18.1c-3.4,0-6.3,2.8-6.3,6.3v32.3l0.1,0.3l5.3,14.3c0.1,0.4,0.5,0.7,0.9,0.7c0.4,0,0.8-0.3,0.9-0.7L65.9,57l0.1-0.3
		V24.3C66,20.9,63.2,18.1,59.8,18.1z M59.8,68.1L56,57.7h7.6L59.8,68.1z M64,55.7h-8.5V29.9H64V55.7z M64.1,27.9h-8.5v-3.5
		c-0.1-2.4,1.8-4.3,4.2-4.3c2.3,0,4.3,1.9,4.3,4.3V27.9z"/>
</g>
</svg>
