<?xml version="1.0" encoding="utf-8"?>
<!-- Generator: Adobe Illustrator 21.1.0, SVG Export Plug-In . SVG Version: 6.00 Build 0)  -->
<svg version="1.1" id="Layer_1" xmlns="http://www.w3.org/2000/svg" xmlns:xlink="http://www.w3.org/1999/xlink" x="0px" y="0px"
	 viewBox="0 0 100 125" style="enable-background:new 0 0 100 125;" xml:space="preserve">
<path d="M17.4,53.4c0-10.9-1.1-9.9,5.8-9.9V30.3c0-2,1.7-3.7,3.7-3.7H72c2,0,3.7,1.7,3.7,3.7v13.2c6.9,0,5.8-1,5.8,9.9
	c3.2,0,9.4-1,9.4,3.7v23.1c0,2-1.7,3.7-3.7,3.7H75.7v10.9c0,2-1.7,3.7-3.7,3.7H26.9c-2,0-3.7-1.7-3.7-3.7V83.8H11.7
	c-2,0-3.7-1.6-3.7-3.7V57.1c0-2,1.7-3.7,3.7-3.7H17.4z M21.3,47.4v6h1.9v-6H21.3z M77.6,47.4h-1.9v6h1.9V47.4z M75.7,76.1v3.8h11.3
	V57.3H11.9v22.6h11.3c0-1.9-0.7-7.5,3.7-7.5H72C74.3,72.4,75.7,74.7,75.7,76.1L75.7,76.1z M71.8,94.5l0-18.2H27.1l0,18.2H71.8z
	 M27.1,30.5v22.9h44.7V30.5H27.1z"/>
<path d="M74.6,63.8c-2.6,0-2.6-3.9,0-3.9H81c2.6,0,2.6,3.9,0,3.9H74.6z"/>
</svg>
