<?xml version="1.0" encoding="utf-8"?>
<!-- Generator: Adobe Illustrator 21.1.0, SVG Export Plug-In . SVG Version: 6.00 Build 0)  -->
<svg version="1.1"
	 id="Layer_1" xmlns:cc="http://creativecommons.org/ns#" xmlns:dc="http://purl.org/dc/elements/1.1/" xmlns:inkscape="http://www.inkscape.org/namespaces/inkscape" xmlns:rdf="http://www.w3.org/1999/02/22-rdf-syntax-ns#" xmlns:sodipodi="http://sodipodi.sourceforge.net/DTD/sodipodi-0.dtd" xmlns:svg="http://www.w3.org/2000/svg"
	 xmlns="http://www.w3.org/2000/svg" xmlns:xlink="http://www.w3.org/1999/xlink" x="0px" y="0px" viewBox="0 0 64 80"
	 style="enable-background:new 0 0 64 80;" xml:space="preserve">
<g>
	<path d="M5.1,58.6c-0.3,0-0.5,0.2-0.5,0.5v5.1c0,0.7,1,0.7,1,0v-5.1C5.7,58.8,5.4,58.6,5.1,58.6z"/>
	<path d="M5.1,65.1c-0.3,0-0.5,0.2-0.5,0.5v1.7c0,0.7,1,0.7,1,0v-1.7C5.7,65.3,5.4,65.1,5.1,65.1z"/>
	<path d="M5.1,34.3v-5.1c0-0.3-0.2-0.5-0.5-0.5c-0.3,0-0.5,0.2-0.5,0.5v5.1C4.1,35,5.1,35,5.1,34.3z"/>
	<path d="M5.1,37.4v-1.7c0-0.2-0.2-0.5-0.5-0.5c-0.3,0-0.5,0.2-0.5,0.5v1.7C4.1,38.1,5.1,38.1,5.1,37.4z"/>
	<path d="M7.1,58.6c-0.3,0-0.5,0.2-0.5,0.5v1.7c0,0.7,1,0.7,1,0v-1.7C7.7,58.8,7.4,58.6,7.1,58.6z"/>
	<path d="M7.4,45.8c-1.1,0-2,0.9-2,2s0.9,2,2,2c1.1,0,2-0.9,2-2S8.5,45.8,7.4,45.8z M7.4,48.8c-0.6,0-1-0.4-1-1s0.5-1,1-1s1,0.4,1,1
		C8.4,48.3,8,48.8,7.4,48.8z"/>
	<path d="M7.1,61.8c-0.3,0-0.5,0.2-0.5,0.5v5.1c0,0.7,1,0.7,1,0v-5.1C7.7,62,7.4,61.8,7.1,61.8z"/>
	<path d="M32.2,20.8c0.5,0.5,1.2-0.2,0.7-0.7l-1.8-1.8c-0.1-0.1-0.2-0.2-0.4-0.2c-0.4,0-0.7,0.5-0.3,0.9L32.2,20.8z"/>
	<path d="M31.2,16.6l1.8-1.8c0.2-0.4,0-0.9-0.4-0.9c-0.1,0-0.3,0.1-0.3,0.2l-1.8,1.8C30,16.4,30.7,17.1,31.2,16.6z"/>
	<path d="M14.3,20.8c0.5-0.1,0.3-0.9-0.3-0.8h-0.1c-2.9,1-5,3.8-5,7.1c0,1.9,0.7,3.6,1.8,4.9c0.4,0.5,1.2-0.1,0.8-0.7
		c-1-1.2-1.6-2.6-1.6-4.3C9.9,24.1,11.7,21.7,14.3,20.8z"/>
	<path d="M4.8,13.5H8c0.7,0,0.7-1,0-1H4.8C4.1,12.5,4.1,13.5,4.8,13.5z"/>
	<path d="M28,16.6c0.5,0.5,1.2-0.2,0.7-0.7l-1.8-1.8c-0.1-0.2-0.3-0.2-0.4-0.2c-0.4,0-0.7,0.5-0.3,0.9L28,16.6z"/>
	<path d="M42.2,16.5c1.1,0,2-0.9,2-2c0-1.1-0.9-2-2-2c-1.1,0-2,0.9-2,2S41.1,16.5,42.2,16.5z M42.2,13.5c0.5,0,1,0.4,1,1s-0.4,1-1,1
		c-0.6,0-1-0.4-1-1S41.7,13.5,42.2,13.5z"/>
	<path d="M8.7,15.5h6.2c0.7,0,0.7-1,0-1H8.7C8,14.5,8,15.5,8.7,15.5z"/>
	<path d="M28.3,18.1c-0.1,0-0.3,0.1-0.3,0.2l-1.8,1.8c-0.5,0.5,0.2,1.2,0.7,0.7l1.8-1.8C29,18.7,28.8,18.1,28.3,18.1z"/>
	<path d="M9.6,13.5h9c0.7,0,0.7-1,0-1h-9C8.9,12.5,8.9,13.5,9.6,13.5z"/>
	<path d="M16.5,14.5c-0.7,0-0.7,1,0,1h2.6c0.7,0,0.7-1,0-1H16.5z"/>
	<path d="M56.5,53.4h-2.6c-0.7,0-0.7,1,0,1h2.6C57.2,54.4,57.2,53.4,56.5,53.4z"/>
	<path d="M53.5,59.3c-0.2-0.2-0.3-0.2-0.4-0.2c-0.4,0-0.7,0.5-0.3,0.9l1.8,1.8c0.5,0.5,1.2-0.2,0.7-0.7L53.5,59.3z"/>
	<path d="M54.9,63.3c-0.1,0-0.3,0.1-0.3,0.2l-1.8,1.8c-0.5,0.5,0.2,1.2,0.7,0.7l1.8-1.8C55.6,63.8,55.3,63.3,54.9,63.3z"/>
	<path d="M57.7,63.5c-0.1-0.1-0.2-0.2-0.4-0.2c-0.4,0-0.7,0.5-0.3,0.9l1.8,1.8c0.5,0.5,1.2-0.2,0.7-0.7L57.7,63.5z"/>
	<path d="M47,52.4h9c0.7,0,0.7-1,0-1h-9C46.3,51.4,46.3,52.4,47,52.4z"/>
	<path d="M15.6,52.9c-0.1,0-0.3,0.1-0.3,0.2l-1.8,1.8c-0.5,0.5,0.2,1.2,0.7,0.7l1.8-1.8C16.3,53.5,16.1,52.9,15.6,52.9z"/>
	<path d="M57.7,61.8l1.8-1.8c0.3-0.4,0.1-1-0.4-0.9c-0.1,0-0.3,0.1-0.3,0.2L57,61.1C56.5,61.6,57.2,62.3,57.7,61.8z"/>
	<path d="M17.7,53.8l1.8,1.8c0.5,0.5,1.2-0.2,0.7-0.7l-1.8-1.8c-0.1-0.1-0.2-0.2-0.4-0.2C17.6,52.9,17.3,53.4,17.7,53.8z"/>
	<path d="M18.5,51.4l1.8-1.8c0.2-0.4,0-0.9-0.4-0.9c-0.1,0-0.3,0.1-0.3,0.2l-1.8,1.8C17.3,51.2,18,51.9,18.5,51.4z"/>
	<path d="M59.8,15.6L57.1,13c-0.2-0.3-0.3-0.3-0.4-0.3c-0.1,0-0.3,0.1-0.3,0.2l-2,2L47,22.5c-1-0.5-2.2-0.8-3.4-0.8
		c-2.1,0-4.1,0.9-5.4,2.4H23.3c-1.2-2.7-3.8-4.5-6.9-4.5c-0.3,0-0.5,0.2-0.5,0.5V27l-3.5,6c-0.1,0.2-0.1,0.5,0.2,0.7
		c1,0.6,2.1,0.9,3.3,1v10.5c0,0.6,0.5,1.2,1.2,1.2h13.6v6.8l-0.9,1.6l-10.4,6c-0.4-0.2-0.7-0.3-1.1-0.3c-1.5,0-2.8,1.3-2.8,2.8
		s1.3,2.8,2.8,2.8s2.7-1.2,2.8-2.7l9.7-5.6v6.7c-0.8,0.5-1.3,1.3-1.3,2.3c0,1.5,1.3,2.8,2.8,2.8s2.8-1.3,2.8-2.8
		c0-0.9-0.5-1.7-1.3-2.3v-6.7l9.5,5.5v0.1c0,1.5,1.3,2.8,2.8,2.8s2.8-1.3,2.8-2.8s-1.3-2.8-2.8-2.8c-0.3,0-0.7,0.1-1,0.2l-10.5-6
		l-0.9-1.6v-6.8h13.5c0.6,0,1.2-0.5,1.2-1.2v-9.9c1.7-1.4,2.8-3.6,2.8-5.9c0-1.2-0.3-2.4-0.8-3.4l7.4-7.7l2-2
		C60,16.1,60,15.8,59.8,15.6z M16.9,20.6c3.2,0.3,5.8,2.8,6,6h-6V20.6z M13.7,32.9l3-5.3H23c-0.3,3.4-3.1,6.1-6.5,6.1
		C15.5,33.7,14.6,33.4,13.7,32.9z M33.8,55.2c0,0.1,0.1,0.1,0.2,0.2l10.7,6.2c0.1,0.1,0.3,0.1,0.5,0c0.3-0.1,0.5-0.2,0.8-0.2
		c1,0,1.8,0.8,1.8,1.8S47,65,46,65s-1.8-0.8-1.8-1.8c0-0.1,0-0.2,0-0.3c0-0.2-0.1-0.4-0.2-0.5l-10.6-6.1c-0.3-0.2-0.8,0-0.8,0.4v7.8
		c0,0.2,0.1,0.4,0.3,0.4c0.6,0.3,1,0.9,1,1.6c0,1-0.8,1.8-1.8,1.8s-1.8-0.8-1.8-1.8c0-0.7,0.4-1.3,1-1.6c0.2-0.1,0.3-0.3,0.3-0.4
		v-7.8c0-0.4-0.4-0.6-0.8-0.4l-10.6,6.1c-0.2,0.1-0.3,0.3-0.2,0.5c0,0.1,0,0.1,0,0.2c0,1-0.8,1.8-1.8,1.8s-1.8-0.8-1.8-1.8
		s0.8-1.8,1.8-1.8c0.3,0,0.7,0.1,1,0.3c0.2,0.1,0.4,0.1,0.5,0l10.7-6.2c0.1,0,0.1-0.1,0.2-0.2l1-1.8c0-0.1,0.1-0.2,0.1-0.2l-0.1-6.9
		h1.1v6.9c0,0.1,0,0.2,0.1,0.2L33.8,55.2z M43.4,36c-0.7,0-0.7,1,0,1c1.4,0,2.6-0.4,3.7-1v9.3c0,0.1-0.1,0.2-0.2,0.2H17
		c-0.1,0-0.2-0.1-0.2-0.2V34.8c4-0.2,7.1-3.5,7.1-7.5c0-0.7-0.1-1.4-0.3-2.1h13.6c-0.8,1.2-1.3,2.7-1.3,4.3c0,0.7,1,0.7,1,0
		c0-3.8,2.9-6.8,6.6-6.8c1,0,1.9,0.2,2.7,0.6l-2,2.1l-0.3,1.2c-0.1,0-0.2,0-0.3,0c-0.7,0-0.6,1,0,1l-0.7,2.6l2.4-0.7
		c0,1-0.8,1.7-1.8,1.7s-1.8-0.8-1.8-1.8c0-0.7-1-0.7-1,0c0,1.5,1.2,2.8,2.7,2.8s2.8-1.2,2.8-2.7c0-0.1,0-0.2,0-0.2l1.2-0.4l2-2.1
		c0.4,0.8,0.6,1.7,0.6,2.6C50,33,47.1,36,43.4,36z M47,27.7l-2.7,0.8l0.7-2.8l10-10.1l0.6,0.6l-10,10.3l0.7,0.7l10-10.3l0.6,0.6
		L47,27.7z M57.7,16.8l-2-1.9l1-1l2,1.9L57.7,16.8z"/>
	<path d="M47.8,29.4c0,2.3-1.8,4.2-4.1,4.2s-4.2-1.8-4.2-4.1s1.8-4.2,4.1-4.2c0.6-0.1,0.6-1.2-0.1-1.1c-2.8,0-5.1,2.4-5.1,5.2
		c0,1.3,0.5,2.5,1.3,3.4l-3.5,4.6c-0.3-0.2-0.7-0.3-1-0.3c-0.6,0-1.2,0.3-1.6,0.7l-4.4-3.3c0.2-0.3,0.3-0.7,0.3-1.1
		c0-1.2-1-2.3-2.3-2.3c-1.2,0-2.3,1-2.3,2.3c0,0.5,0.2,1,0.5,1.4l-3.5,4.4c-0.2-0.1-0.5-0.1-0.7-0.1c-1.2,0-2.3,1-2.3,2.3
		c0,1.2,1,2.3,2.3,2.3s2.3-1,2.3-2.3c0-0.6-0.3-1.2-0.7-1.6l3.5-4.3c0.3,0.1,0.6,0.2,1,0.2c0.5,0,0.9-0.2,1.3-0.4l4.6,3.4
		c-0.1,0.2-0.1,0.5-0.1,0.7c0,1.2,1,2.3,2.3,2.3c1.3,0,2.3-1,2.3-2.3c0-0.5-0.2-1-0.5-1.4l3.4-4.5c0.9,0.7,2,1.1,3.1,1.1
		c2.8,0,5.1-2.4,5.1-5.2C48.8,28.7,47.8,28.7,47.8,29.4z M21.2,42.6c-0.7,0-1.3-0.6-1.3-1.3s0.6-1.3,1.3-1.3s1.3,0.6,1.3,1.3
		C22.5,42,21.9,42.6,21.2,42.6z M27.2,34.6c-0.7,0-1.3-0.6-1.3-1.3s0.6-1.3,1.3-1.3s1.3,0.6,1.3,1.3S27.9,34.6,27.2,34.6z
		 M35.2,40.6c-0.7,0-1.3-0.6-1.3-1.3s0.6-1.3,1.3-1.3s1.3,0.6,1.3,1.3C36.5,40,35.9,40.6,35.2,40.6z"/>
	<path d="M46.2,54.4h6.2c0.7,0,0.7-1,0-1h-6.2C45.5,53.4,45.5,54.4,46.2,54.4z"/>
	<path d="M45.4,51.4h-3.2c-0.7,0-0.7,1,0,1h3.2C46.1,52.4,46.1,51.4,45.4,51.4z"/>
	<path d="M15.3,51.4c0.5,0.5,1.2-0.2,0.7-0.7l-1.8-1.8c-0.1-0.1-0.3-0.2-0.4-0.2c-0.5,0-0.7,0.5-0.3,0.9L15.3,51.4z"/>
	<path d="M55.9,33.4c0,0.7,1,0.7,1,0v-1.7c0-0.3-0.2-0.5-0.5-0.5c-0.3,0-0.5,0.2-0.5,0.5V33.4z"/>
	<path d="M56.9,30.2v-5.1c0-0.3-0.2-0.5-0.5-0.5c-0.3,0-0.5,0.2-0.5,0.5v5.1C55.9,30.9,56.9,30.9,56.9,30.2z"/>
	<path d="M57.9,33.5c0,0.7,1,0.7,1,0v-5.1c0-0.3-0.2-0.5-0.5-0.5c-0.3,0-0.5,0.2-0.5,0.5V33.5z"/>
	<path d="M58.9,26.8v-1.7c0-0.3-0.2-0.5-0.5-0.5c-0.3,0-0.5,0.2-0.5,0.5v1.7C57.9,27.5,58.9,27.5,58.9,26.8z"/>
	<path d="M53.9,40.7c0,1.1,0.9,2,2,2c1.1,0,2-0.9,2-2s-0.9-2-2-2C54.8,38.7,53.9,39.6,53.9,40.7z M56.9,40.7c0,0.5-0.4,1-1,1
		c-0.6,0-1-0.4-1-1c0-0.5,0.4-1,1-1C56.4,39.7,56.9,40.1,56.9,40.7z"/>
</g>
</svg>
