<?xml version="1.0" encoding="utf-8"?>
<!-- Generator: Adobe Illustrator 21.1.0, SVG Export Plug-In . SVG Version: 6.00 Build 0)  -->
<svg version="1.1" id="Layer_1" xmlns="http://www.w3.org/2000/svg" xmlns:xlink="http://www.w3.org/1999/xlink" x="0px" y="0px"
	 viewBox="0 0 100 125" style="enable-background:new 0 0 100 125;" xml:space="preserve">
<title>Artboard 1 Copy 103</title>
<desc>Created with Sketch.</desc>
<g>
	<path d="M49.6,4.4c-13.9,0-25.3,11.3-25.3,25.3v37.8c0,14,11.3,25.3,25.3,25.3c13.9,0,25.3-11.3,25.3-25.3V29.7
		C74.8,15.7,63.5,4.4,49.6,4.4z M70.6,67.5c0,11.6-9.4,21.1-21,21.1c-11.6,0-21-9.4-21-21.1V29.7c0-11.6,9.4-21.1,21-21.1
		c11.6,0,21,9.4,21,21.1V67.5z"/>
	<path d="M49.6,17c-1.2,0-2.1,0.9-2.1,2.1v8.4c0,1.2,0.9,2.1,2.1,2.1s2.1-0.9,2.1-2.1v-8.4C51.7,18,50.8,17,49.6,17z"/>
	<path d="M61.2,104.3l-11.6,11.6l-11.7-11.7c-0.8-0.8-2.2-0.8-3,0c-0.8,0.8-0.8,2.2,0,3l13.2,13.2c0.4,0.4,0.9,0.6,1.5,0.6
		s1.1-0.2,1.5-0.6l13.1-13.1c0.8-0.8,0.8-2.2,0-3C63.3,103.5,62,103.5,61.2,104.3z"/>
</g>
</svg>
