<?xml version="1.0" encoding="utf-8"?>
<!-- Generator: Adobe Illustrator 21.1.0, SVG Export Plug-In . SVG Version: 6.00 Build 0)  -->
<svg version="1.1" id="Layer_1" xmlns="http://www.w3.org/2000/svg" xmlns:xlink="http://www.w3.org/1999/xlink" x="0px" y="0px"
	 viewBox="0 0 100 125" style="enable-background:new 0 0 100 125;" xml:space="preserve">
<path d="M25.6,29.6c-9.1,4.5-17.2,3.3-17.3,3.3c-0.4-0.1-0.8,0-1.1,0.3c-0.3,0.3-0.5,0.6-0.5,1v31.3c0,0.7,0,1.4,0,2
	c-0.2,4.9-0.3,8.2,8.2,18.7C24.1,97.7,48,115,49,115.7c0,0,0.1,0,0.1,0.1c0,0,0.1,0,0.1,0.1c0.2,0.1,0.3,0.1,0.5,0.1l0,0l0,0
	c0.2,0,0.4-0.1,0.5-0.1c0,0,0.1,0,0.1-0.1c0,0,0.1,0,0.1-0.1c1-0.7,25-18,34.2-29.6c8.4-10.5,8.3-13.8,8.2-18.7c0-0.6,0-1.3,0-2
	V34.2c0-0.4-0.2-0.8-0.5-1c-0.3-0.3-0.7-0.4-1.1-0.3c-0.1,0-8.2,1.3-17.3-3.3c-8.6-4.3-8-14.1-8-14.5c0-0.4-0.1-0.7-0.4-1
	c-0.3-0.3-0.6-0.4-1-0.4H49.8H34.9c-0.4,0-0.7,0.2-1,0.4c-0.3,0.3-0.4,0.6-0.4,1C33.6,15.5,34.2,25.3,25.6,29.6z M36.3,16.3h13.6
	h13.6c0.1,3.3,1.2,11.5,9.5,15.7c7.5,3.8,14.4,3.9,17.4,3.7v29.8c0,0.8,0,1.5,0,2.1c0.1,4.5,0.2,7.2-7.6,16.9
	c-8.1,10.1-28.6,25.4-32.9,28.5c-4.3-3.1-24.8-18.4-32.9-28.5C9.1,74.8,9.2,72,9.4,67.6c0-0.7,0-1.4,0-2.1V35.7
	c3,0.2,9.8,0.1,17.4-3.7C35,27.9,36.2,19.7,36.3,16.3z"/>
<path d="M43,76h13.7c0.4,0,0.8-0.2,1.1-0.5s0.3-0.8,0.2-1.2l-3.4-11.2c1.8-1.4,2.9-3.6,2.9-5.9c0-4.2-3.4-7.6-7.6-7.6
	s-7.6,3.4-7.6,7.6c0,2.3,1.1,4.5,2.9,5.9l-3.5,11.2c-0.1,0.4-0.1,0.9,0.2,1.2C42.1,75.8,42.5,76,43,76z M48,62.9c0,0,0-0.1,0-0.1
	c0-0.1,0-0.2,0-0.3c0-0.1,0-0.2,0-0.3c0-0.1,0-0.2-0.1-0.2c0-0.1-0.1-0.2-0.1-0.2c0-0.1-0.1-0.1-0.2-0.2c-0.1-0.1-0.1-0.1-0.2-0.2
	c0,0-0.1-0.1-0.1-0.1c-1.5-0.9-2.4-2.5-2.4-4.2c0-2.7,2.2-4.9,4.9-4.9c2.7,0,4.9,2.2,4.9,4.9c0,1.7-0.9,3.4-2.4,4.2
	c0,0-0.1,0.1-0.1,0.1c-0.1,0.1-0.2,0.1-0.2,0.2c-0.1,0.1-0.1,0.1-0.1,0.2c-0.1,0.1-0.1,0.2-0.1,0.2c0,0.1-0.1,0.1-0.1,0.2
	c0,0.1,0,0.2,0,0.3c0,0.1,0,0.2,0,0.3c0,0,0,0.1,0,0.1l3.2,10.4H44.8L48,62.9z"/>
</svg>
