<?xml version="1.0" encoding="utf-8"?>
<!-- Generator: Adobe Illustrator 21.1.0, SVG Export Plug-In . SVG Version: 6.00 Build 0)  -->
<svg version="1.1" id="Layer_1" xmlns="http://www.w3.org/2000/svg" xmlns:xlink="http://www.w3.org/1999/xlink" x="0px" y="0px"
	 viewBox="0 0 100 125" style="enable-background:new 0 0 100 125;" xml:space="preserve">
<title>18</title>
<g>
	<path d="M26.4,27.2c0-5.5-4.4-9.9-9.9-10c-5.5,0-9.9,4.4-10,9.9c0,5,3.6,9.2,8.5,9.9v13.8C9.7,51.5,5.9,56.6,6.7,62
		c0.8,5.4,5.8,9.2,11.2,8.5s9.2-5.8,8.5-11.2c-0.6-4.4-4.1-7.8-8.5-8.5V36.9C22.7,36.2,26.3,32.1,26.4,27.2z M9.5,27.2
		c0-4,3.2-7.2,7.2-7.2s7.2,3.2,7.2,7.2s-3.2,7.2-7.2,7.2C12.7,34.4,9.5,31.2,9.5,27.2C9.5,27.2,9.5,27.2,9.5,27.2z M23.7,60.6
		c0,4-3.2,7.2-7.2,7.2c-4,0-7.2-3.2-7.2-7.2c0-4,3.2-7.2,7.2-7.2S23.7,56.6,23.7,60.6L23.7,60.6z"/>
	<path d="M83.4,84.1c-5.5,0-9.9,4.4-9.9,9.9c0,5.5,4.4,9.9,9.9,9.9c5.5,0,9.9-4.4,9.9-9.9c0,0,0,0,0,0
		C93.3,88.6,88.8,84.1,83.4,84.1z M83.4,101.1c-4,0-7.2-3.2-7.2-7.2c0-4,3.2-7.2,7.2-7.2c4,0,7.2,3.2,7.2,7.2c0,0,0,0,0,0
		C90.5,97.9,87.3,101.1,83.4,101.1z"/>
	<path d="M83.4,17.3c-5.5,0-9.9,4.4-9.9,9.9s4.4,9.9,9.9,9.9c5.5,0,9.9-4.4,9.9-9.9c0,0,0,0,0,0C93.3,21.7,88.8,17.3,83.4,17.3z
		 M83.4,34.2c-4,0-7.2-3.2-7.2-7.2s3.2-7.2,7.2-7.2c4,0,7.2,3.2,7.2,7.2v0C90.5,31,87.3,34.2,83.4,34.2z"/>
	<path d="M16.6,103.9c5.1-0.1,9.4-4,9.8-9.1h14.3c0.5,5.4,5.3,9.3,10.6,8.9c5.4-0.5,9.3-5.3,8.9-10.6c-0.5-5.4-5.3-9.3-10.6-8.9
		c-4.3,0.4-7.9,3.6-8.7,7.9H26.3c-1.1-5.4-6.3-8.9-11.7-7.8c-5.4,1.1-8.9,6.3-7.8,11.7C7.7,100.5,11.9,103.9,16.6,103.9z M50.5,86.9
		c4,0,7.2,3.2,7.2,7.2c0,4-3.2,7.2-7.2,7.2s-7.2-3.2-7.2-7.2l0,0C43.4,90.1,46.6,86.9,50.5,86.9z M16.6,86.9c4,0,7.2,3.2,7.2,7.2
		c0,4-3.2,7.2-7.2,7.2S9.5,98,9.5,94.1l0,0C9.5,90.1,12.7,86.9,16.6,86.9z"/>
	<path d="M83.4,50.6c-1.1,0-2.2,0.2-3.3,0.6L59,30c1.6-5.2-1.4-10.8-6.6-12.4C47.1,16,41.6,18.9,40,24.2c-1.6,5.2,1.4,10.8,6.6,12.4
		c4.2,1.3,8.7-0.3,11.1-4l19.9,20c-2.1,1.6-3.5,4-3.9,6.6H59.2c-0.8-5.4-5.8-9.2-11.2-8.5s-9.2,5.8-8.5,11.2
		c0.8,5.4,5.8,9.2,11.2,8.5c4.4-0.6,7.8-4.1,8.5-8.5h14.5c0.8,5.4,5.8,9.2,11.2,8.5c5.4-0.8,9.2-5.8,8.5-11.2
		c-0.7-4.9-4.9-8.6-9.9-8.5H83.4z M49.4,34.2c-4,0-7.2-3.2-7.2-7.2c0-4,3.2-7.2,7.2-7.2c4,0,7.2,3.2,7.2,7.2S53.4,34.2,49.4,34.2
		L49.4,34.2z M49.4,67.6c-4,0-7.2-3.2-7.2-7.2c0-4,3.2-7.2,7.2-7.2c4,0,7.2,3.2,7.2,7.2c0,0,0,0.1,0,0.1c0,4-3.2,7.2-7.2,7.2
		c0,0,0,0,0,0V67.6z M83.4,67.6c-4,0-7.2-3.2-7.2-7.2c0-4,3.2-7.2,7.2-7.2c4,0,7.2,3.2,7.2,7.2c0,0,0,0.1,0,0.1c0,4-3.2,7.2-7.2,7.2
		h0V67.6z"/>
</g>
</svg>
