<?xml version="1.0" encoding="utf-8"?>
<!-- Generator: Adobe Illustrator 21.1.0, SVG Export Plug-In . SVG Version: 6.00 Build 0)  -->
<svg version="1.1" id="Layer_1" xmlns="http://www.w3.org/2000/svg" xmlns:xlink="http://www.w3.org/1999/xlink" x="0px" y="0px"
	 viewBox="0 0 512 512" style="enable-background:new 0 0 512 512;" xml:space="preserve">
<path d="M256,0C114.6,0,0,114.6,0,256s114.6,256,256,256s256-114.6,256-256S397.4,0,256,0z M358.5,202.9
	c3.3,73.9-51.8,156.2-149.3,156.2c-29.7,0-57.3-8.7-80.5-23.6c27.9,3.3,55.7-4.4,77.8-21.7c-23-0.4-42.4-15.6-49.1-36.5
	c8.2,1.6,16.3,1.1,23.7-0.9c-25.3-5.1-42.7-27.8-42.1-52.2c7.1,3.9,15.2,6.3,23.8,6.6c-23.4-15.6-30-46.5-16.3-70.1
	c25.9,31.8,64.6,52.7,108.3,54.9c-7.6-32.9,17.3-64.5,51.2-64.5c15.1,0,28.7,6.4,38.3,16.6c12-2.4,23.2-6.7,33.4-12.7
	c-3.9,12.3-12.3,22.6-23.1,29.1c10.6-1.3,20.7-4.1,30.2-8.3C377.6,186.3,368.7,195.5,358.5,202.9z"/>
</svg>
