<?xml version="1.0" encoding="utf-8"?>
<!-- Generator: Adobe Illustrator 21.1.0, SVG Export Plug-In . SVG Version: 6.00 Build 0)  -->
<svg version="1.1"
	 id="Layer_1" xmlns:cc="http://creativecommons.org/ns#" xmlns:dc="http://purl.org/dc/elements/1.1/" xmlns:inkscape="http://www.inkscape.org/namespaces/inkscape" xmlns:rdf="http://www.w3.org/1999/02/22-rdf-syntax-ns#" xmlns:sodipodi="http://sodipodi.sourceforge.net/DTD/sodipodi-0.dtd" xmlns:svg="http://www.w3.org/2000/svg"
	 xmlns="http://www.w3.org/2000/svg" xmlns:xlink="http://www.w3.org/1999/xlink" x="0px" y="0px" viewBox="0 0 100 125"
	 style="enable-background:new 0 0 100 125;" xml:space="preserve">
<g>
	<path d="M94.1,57.4c-1-1.4-2.7-2.4-4.7-2.3l0,0c-0.9,0-1.9,0.2-2.9,0.7l-20.7,9.9c-0.4-2.3-2.5-4.1-5-4c0,0,0,0,0,0l-11.3,0.3
		c-2.9,0-5.2-0.7-7.8-1.5c-2.6-0.8-5.6-1.5-9.8-1.5c-3.8,0-9.3,1.3-13.4,2.9V58c0-0.6-0.5-1-1-1H6c-0.6,0-1,0.5-1,1v8.5v22.6
		c0,0.6,0.5,1,1,1h11.3c0.6,0,1-0.5,1-1v-3.5c14.6-2.8,23,1.5,35.4,1.5c0,0,0,0,0,0c2.1,0,4.8-1.2,8.1-2.9c3.3-1.7,7.1-4.1,11-6.6
		c7.8-5,15.7-10.7,19.9-13.6c0,0,0,0,0,0c1.2-0.8,1.9-2,2-3.2C95.1,59.7,94.8,58.4,94.1,57.4z M11.1,88.1h-4V66.6v-7.5h4V88.1z
		 M92.9,60.7c-0.1,0.7-0.4,1.3-1.1,1.7c0,0,0,0,0,0c-4.2,2.9-12.2,8.6-19.9,13.5c-3.9,2.5-7.6,4.8-10.9,6.5
		c-3.2,1.7-5.9,2.6-7.2,2.7c0,0,0,0,0,0c-11.8,0-20.6-4.3-35.4-1.6v-3c0-0.6-0.5-1.1-1-1.1c-0.6,0-1.1,0.5-1.1,1c0,0,0,0,0,0v7.7
		h-3.1v-29h3.1v7.7c0,0.6,0.5,1.1,1,1.1c0.6,0,1.1-0.5,1.1-1c0,0,0,0,0,0v-2.5c3.8-1.5,9.9-3,13.4-3c4,0,6.7,0.7,9.2,1.5
		c2.6,0.7,5.1,1.5,8.4,1.5c0,0,0,0,0,0l11.3-0.3c0,0,0,0,0,0c1.6,0,2.9,1.2,2.9,2.6c0,1.4-1.3,2.6-3,2.6c0,0,0,0,0,0L39.2,70
		c-0.6,0-1,0.5-1,1.1c0,0.6,0.5,1,1.1,1c0,0,0,0,0,0l21.5-0.9l0,0c2-0.1,3.9-1.3,4.6-3c0,0,0.1,0,0.1,0l21.8-10.5
		c0.9-0.4,1.6-0.6,2.3-0.6l0,0c1.3,0,2.2,0.7,2.7,1.5C92.8,59.2,93,60,92.9,60.7z"/>
	<path d="M47.4,47.9c0,0.6,0.5,1.1,1,1.1c0,0,0,0,0,0h6v6c0,0.6,0.5,1.1,1,1.1c0.6,0,1.1-0.5,1.1-1c0,0,0,0,0,0v-6h6
		c0.6,0,1.1-0.5,1.1-1c0-0.6-0.5-1.1-1-1.1c0,0,0,0,0,0h-6v-6c0-0.6-0.5-1.1-1-1.1c0,0,0,0,0,0c-0.6,0-1,0.5-1,1.1v6h-6
		C47.9,46.9,47.4,47.4,47.4,47.9z"/>
	<path d="M60,32.9C60,32.9,60,32.9,60,32.9h3.1v3c0,0.6,0.5,1.1,1,1.1c0.6,0,1.1-0.5,1.1-1c0,0,0,0,0,0v-3h3c0.6,0,1.1-0.5,1.1-1
		c0-0.6-0.5-1.1-1-1.1c0,0,0,0,0,0h-3v-3c0-0.6-0.5-1.1-1-1.1c0,0,0,0,0,0c-0.6,0-1,0.5-1,1.1v3h-3c-0.6,0-1.1,0.5-1.1,1
		C59,32.4,59.4,32.9,60,32.9z"/>
	<path d="M42.9,32.9C42.9,32.9,42.9,32.9,42.9,32.9H46v3c0,0.6,0.5,1.1,1,1.1s1.1-0.5,1.1-1c0,0,0,0,0,0v-3h3c0.6,0,1.1-0.5,1.1-1
		c0-0.6-0.5-1.1-1-1.1c0,0,0,0,0,0h-3v-3c0-0.6-0.5-1.1-1-1.1c0,0,0,0,0,0c-0.6,0-1,0.5-1,1.1v3h-3c-0.6,0-1.1,0.5-1.1,1
		C41.9,32.4,42.3,32.9,42.9,32.9z"/>
</g>
</svg>
